<svg width="146" height="59" xmlns="http://www.w3.org/2000/svg" xmlns:svg="http://www.w3.org/2000/svg">
 <g>
  <title>Layer 1</title>
  <path id="svg_1" d="m41.71,41l0.15,0l7.84,-19.53c0.76,-1.88 1.48,-2.79999 2.16,-3.20999l0,-0.20001l-4.71,0l0,0.20001c0.99,0.53 1.22,2.00998 0.53,3.69l-4.81,12.04999l-6.53001,-16l-0.14999,0l-6.88,15.97l-4.94,-12.57999c-0.59,-1.5 -0.41,-2.62003 0.51,-3.16l0,-0.20001l-6.88,0l0,0.20001c0.74,0.37997 1.27,1.16998 1.94,2.79999l8.1,19.97l0.15,0l6.83,-16.17001l6.69,16.17001zm50.84,-11.20999l0,-6.34l6.62,0c3.03,0 4.18001,0.48001 5.27,2.01001l0.2,-0.08002l-0.41,-3.48999l-16.57999,0l-0.03,0.14999c0.99,0.61002 1.27,1.5 1.27,2.78l0,12.56c0,1.30002 -0.28,2.16 -1.27,2.78l0.03,0.20001l17.45,0l0.64,-3.77002l-0.15001,-0.07999c-1.12,1.5 -2.45,2.26999 -5.45,2.26999l-7.59,0l0,-7.48999l5.06999,0c2.16,0 3.26001,0.36002 3.82001,1.26999l0.23,0l0,-4.01999l-0.23,-0.03c-0.59,0.92001 -1.66,1.26999 -3.82001,1.26999l-5.06999,0l0,0.01001zm22.20999,10.37l0.03,0.19998l6.37,0l0,-0.19998c-1.03999,-0.61002 -1.38,-1.55002 -1.38,-3.08002l0,-4.32999l5.60001,-8c1.02,-1.48001 1.88,-2.37 2.62,-2.67001l0,-0.14999l-4.97,0l0,0.14999c0.89,0.51001 1.02,1.76001 0.08,3.13l-4.09999,5.91l-4.53,-6.66998c-0.71001,-1.02002 -0.59001,-1.94 0.25,-2.39001l0,-0.14999l-6.98001,0l0,0.14999c0.84001,0.36002 1.35001,0.82001 2.24001,2.11002l6.19,8.84l0,4.07999c-0.01999,1.51001 -0.37999,2.45999 -1.42,3.07001m-30.77,0.19998l0.89,-3.89999l-0.2,-0.07999c-1.1,1.67999 -2.75,2.38998 -5.2,2.38998l-7.21001,0l0,-13.64999c0,-1.55002 0.38,-2.45001 1.48,-3.08002l0,-0.14999l-6.34,0l-0.03001,0.14999c0.99001,0.61002 1.27,1.5 1.27,2.78l0,12.56003c0,1.29999 -0.28,2.15997 -1.27,2.78l0.03001,0.19998l16.57999,0l0,0zm-28.09,-3.12997c0,1.42999 -0.33,2.37 -1.35,2.92999l0,0.20001l6.32,0l0,-0.20001c-1.02,-0.56 -1.35001,-1.5 -1.35001,-2.92999l0,-12.25c0,-1.39999 0.31001,-2.32001 1.35001,-2.92999l0,-0.14999l-6.29,0l0,0.14999c1.02,0.60999 1.35,1.53 1.35,2.92999l0,12.25l-0.03,0z" fill="#1F1F1E"/>
 </g>
</svg>