<?xml version="1.0" encoding="iso-8859-1"?>
<!-- Generator: Adobe Illustrator 18.1.1, SVG Export Plug-In . SVG Version: 6.00 Build 0)  -->
<svg version="1.1" xmlns="http://www.w3.org/2000/svg" xmlns:xlink="http://www.w3.org/1999/xlink" x="0px" y="0px"
	 viewBox="0 0 576 576" style="enable-background:new 0 0 576 576;" xml:space="preserve">
<g id="identity-overview.svg">
	<rect y="190" style="fill:#FFFFFF;" width="576" height="128"/>
	<path style="fill:#A0C7E5;" d="M0,254h576v64H0V254z"/>
	<path style="fill:#FFFFFF;" d="M16,270h560v32H16V270z"/>
	<path style="fill:#A0C7E5;" d="M264,206h48c4.4,0,8,3.6,8,8v16c0,4.4-3.6,8-8,8h-48c-4.4,0-8-3.6-8-8v-16
		C256,209.6,259.6,206,264,206z"/>
	<path style="fill:#A0C7E5;" d="M344,206h48c4.4,0,8,3.6,8,8v16c0,4.4-3.6,8-8,8h-48c-4.4,0-8-3.6-8-8v-16
		C336,209.6,339.6,206,344,206z"/>
	<path style="fill:#A0C7E5;" d="M424,206h48c4.4,0,8,3.6,8,8v16c0,4.4-3.6,8-8,8h-48c-4.4,0-8-3.6-8-8v-16
		C416,209.6,419.6,206,424,206z"/>
	<path style="fill:#E87700;" d="M16,270h112v32H16V270z"/>
	<g>
		<polygon style="fill:#A0C7E5;" points="30.4,206.4 22,206.4 22,237.6 42.4,237.6 42.4,230.8 30.4,230.8 		"/>
		<path style="fill:#A0C7E5;" d="M61.2,206c-4.8,0-8.6,1.4-11.2,4s-3.8,6.6-3.8,11.8c0,5.2,1.4,9.2,4,12c2.6,2.8,6.4,4.2,11.2,4.2
			c4.8,0,8.6-1.2,11.2-4c2.6-2.8,3.8-6.8,3.8-12c0-5.2-1.2-9.2-4-12C69.8,207.4,66.2,206,61.2,206z M66,228.8
			c-1,1.4-2.6,2.2-4.8,2.2c-4.2,0-6.2-3-6.2-9s2.2-9.2,6.4-9c2,0,3.6,0.8,4.6,2.2s1.6,3.6,1.6,6.8C67.6,225,67,227.4,66,228.8z"/>
		<path style="fill:#A0C7E5;" d="M94.6,225.8h5.6v4.8c-1,0.2-2.2,0.4-3.4,0.4c-2.2,0-4-0.6-5.2-2.2c-1.2-1.4-1.8-3.6-1.8-6.6
			s0.6-5.2,2-6.8c1.2-1.6,3.2-2.4,5.6-2.4c2.8,0,5.2,0.4,7.4,1.6l2.6-6.6c-1.4-0.6-2.8-1-4.6-1.4c-1.8-0.4-3.6-0.6-5.6-0.6
			c-5.2,0-9.2,1.4-12.2,4.2c-2.8,2.8-4.2,6.8-4.2,11.8s1.4,9,4,11.8c2.8,2.8,6.4,4.2,11.2,4.2c4.4,0,8.4-0.6,12-1.8v-16.8H94.6
			V225.8z"/>
		<path style="fill:#A0C7E5;" d="M139.4,210c-2.6-2.6-6.2-4-11.2-4c-4.8,0-8.6,1.2-11.2,4c-2.6,2.6-3.8,6.6-3.8,11.8
			c0,5.2,1.4,9.2,4,12c2.6,2.8,6.4,4.2,11.2,4.2c4.8,0,8.6-1.2,11.2-4c2.6-2.8,3.8-6.8,3.8-12C143.4,216.8,142,212.8,139.4,210z
			 M133,228.8c-1,1.4-2.6,2.2-4.8,2.2c-4.2,0-6.2-3-6.2-9s2-9.2,6.4-9c2,0,3.6,0.8,4.6,2.2s1.6,3.6,1.6,6.8
			C134.6,225,134,227.4,133,228.8z"/>
	</g>
	<g id="annotations">
		<g>
			<g>
				<path style="fill:#7F7F7F;" d="M70.354,396.973c-0.808,0-1.583-0.312-2.126-0.855c-0.555-0.555-0.873-1.326-0.873-2.117
					s0.318-1.563,0.873-2.117c0.569-0.569,1.325-0.883,2.127-0.883c0.799,0,1.574,0.325,2.126,0.892
					c0.548,0.534,0.874,1.31,0.874,2.108s-0.325,1.574-0.892,2.126C71.938,396.659,71.165,396.973,70.354,396.973z"/>
				<path style="fill:#FFFFFF;" d="M70.355,392c0.53,0,1.04,0.21,1.41,0.59c0.38,0.37,0.59,0.881,0.59,1.41
					c0,0.53-0.21,1.04-0.59,1.41c-0.37,0.375-0.89,0.563-1.411,0.563s-1.044-0.188-1.419-0.563c-0.37-0.37-0.58-0.88-0.58-1.41
					c0-0.529,0.21-1.04,0.58-1.41C69.315,392.21,69.826,392,70.355,392 M70.355,390c-1.07,0-2.076,0.417-2.834,1.176
					c-0.741,0.741-1.166,1.771-1.166,2.824s0.425,2.083,1.166,2.824c0.73,0.73,1.762,1.148,2.833,1.148
					c1.076,0,2.109-0.422,2.835-1.158c0.731-0.711,1.166-1.748,1.166-2.815c0-1.058-0.428-2.086-1.176-2.824
					C72.442,390.428,71.414,390,70.355,390L70.355,390z"/>
			</g>
			<g>
				<circle style="fill:#7F7F7F;" cx="70.355" cy="364.13" r="3"/>
				<path style="fill:#FFFFFF;" d="M70.355,362.13c1.1,0,2,0.891,2,2c0,1.101-0.9,2-2,2c-1.1,0-2-0.899-2-2
					C68.355,363.021,69.256,362.13,70.355,362.13 M70.355,360.13c-2.206,0-4,1.794-4,4s1.794,4,4,4s4-1.794,4-4
					S72.561,360.13,70.355,360.13L70.355,360.13z"/>
			</g>
			<g>
				<circle style="fill:#7F7F7F;" cx="70.355" cy="354.17" r="3"/>
				<path style="fill:#FFFFFF;" d="M70.355,352.17c1.1,0,2,0.891,2,2c0,1.101-0.9,2-2,2c-1.1,0-2-0.899-2-2
					C68.355,353.061,69.256,352.17,70.355,352.17 M70.355,350.17c-2.206,0-4,1.794-4,4s1.794,4,4,4s4-1.794,4-4
					S72.561,350.17,70.355,350.17L70.355,350.17z"/>
			</g>
			<g>
				<circle style="fill:#7F7F7F;" cx="70.355" cy="384.04" r="3"/>
				<path style="fill:#FFFFFF;" d="M70.355,382.04c1.1,0,2,0.9,2,2c0,1.11-0.9,2-2,2c-1.1,0-2-0.89-2-2
					C68.355,382.94,69.256,382.04,70.355,382.04 M70.355,380.04c-2.206,0-4,1.794-4,4s1.794,4,4,4s4-1.794,4-4
					S72.561,380.04,70.355,380.04L70.355,380.04z"/>
			</g>
			<g>
				<circle style="fill:#7F7F7F;" cx="70.355" cy="374.08" r="3"/>
				<path style="fill:#FFFFFF;" d="M70.355,372.08c1.1,0,2,0.9,2,2c0,1.11-0.9,2-2,2c-1.1,0-2-0.89-2-2
					C68.355,372.98,69.256,372.08,70.355,372.08 M70.355,370.08c-2.206,0-4,1.794-4,4s1.794,4,4,4s4-1.794,4-4
					S72.561,370.08,70.355,370.08L70.355,370.08z"/>
			</g>
			<g>
				<circle style="fill:#7F7F7F;" cx="70.355" cy="344.21" r="3"/>
				<path style="fill:#FFFFFF;" d="M70.355,342.21c1.1,0,2,0.9,2,2c0,1.11-0.9,2-2,2c-1.1,0-2-0.89-2-2
					C68.355,343.11,69.256,342.21,70.355,342.21 M70.355,340.21c-2.206,0-4,1.794-4,4s1.794,4,4,4s4-1.794,4-4
					S72.561,340.21,70.355,340.21L70.355,340.21z"/>
			</g>
			<g>
				<path style="fill:#7F7F7F;" d="M70.355,327.29c-1.654,0-3-1.346-3-3c0-1.648,1.346-2.99,3-2.99s3,1.342,3,2.99
					C73.355,325.944,72.01,327.29,70.355,327.29z"/>
				<path style="fill:#FFFFFF;" d="M70.355,322.3c1.1,0,2,0.891,2,1.99c0,1.11-0.9,2-2,2c-1.1,0-2-0.89-2-2
					C68.355,323.19,69.256,322.3,70.355,322.3 M70.355,320.3c-2.206,0-4,1.79-4,3.99c0,2.206,1.794,4,4,4s4-1.794,4-4
					C74.355,322.09,72.561,320.3,70.355,320.3L70.355,320.3z"/>
			</g>
			<g>
				<circle style="fill:#7F7F7F;" cx="70.355" cy="334.25" r="3"/>
				<path style="fill:#FFFFFF;" d="M70.355,332.25c1.1,0,2,0.9,2,2c0,1.11-0.9,2-2,2c-1.1,0-2-0.89-2-2
					C68.355,333.15,69.256,332.25,70.355,332.25 M70.355,330.25c-2.206,0-4,1.794-4,4s1.794,4,4,4s4-1.794,4-4
					S72.561,330.25,70.355,330.25L70.355,330.25z"/>
			</g>
			<g>
				<polygon style="fill:#7F7F7F;" points="70.359,317.343 56.98,331.734 52.587,327.643 70.359,308.531 88.127,327.643 
					83.734,331.734 				"/>
				<path style="fill:#FFFFFF;" d="M70.359,310l16.355,17.592l-2.93,2.729l-13.05-14.042c-0.124,0.022-0.251,0.033-0.377,0.033
					c-0.126,0-0.252-0.011-0.376-0.033L56.93,330.321L54,327.592L70.359,310 M70.36,307.063l-1.465,1.575L52.535,326.23
					l-1.361,1.464l1.462,1.362l2.93,2.729l1.465,1.364l1.363-1.466l11.965-12.871l11.961,12.871l1.363,1.467l1.465-1.365l2.93-2.729
					l1.462-1.362l-1.361-1.463l-16.355-17.592L70.36,307.063L70.36,307.063z"/>
			</g>
		</g>
		<g>
			<g>
				<path style="fill:#7F7F7F;" d="M286.359,132.973c-0.799,0-1.574-0.325-2.126-0.892c-0.548-0.534-0.874-1.31-0.874-2.108
					s0.325-1.574,0.892-2.126c0.525-0.533,1.299-0.847,2.109-0.847c0.808,0,1.583,0.312,2.126,0.855
					c0.555,0.555,0.873,1.326,0.873,2.117s-0.318,1.563-0.873,2.117C287.917,132.659,287.162,132.973,286.359,132.973z"/>
				<path style="fill:#FFFFFF;" d="M286.36,128c0.521,0,1.044,0.188,1.419,0.563c0.37,0.37,0.58,0.88,0.58,1.41
					c0,0.529-0.21,1.04-0.58,1.41c-0.38,0.38-0.89,0.59-1.42,0.59c-0.53,0-1.04-0.21-1.41-0.59c-0.38-0.37-0.59-0.881-0.59-1.41
					c0-0.53,0.21-1.04,0.59-1.41C285.319,128.188,285.839,128,286.36,128 M286.36,126c-1.076,0-2.109,0.422-2.835,1.158
					c-0.731,0.711-1.166,1.748-1.166,2.815c0,1.058,0.428,2.086,1.176,2.824c0.738,0.747,1.766,1.176,2.824,1.176
					c1.07,0,2.076-0.417,2.834-1.176c0.741-0.741,1.166-1.771,1.166-2.824s-0.425-2.083-1.166-2.824
					C288.464,126.418,287.431,126,286.36,126L286.36,126z"/>
			</g>
			<g>
				<circle style="fill:#7F7F7F;" cx="286.359" cy="159.843" r="3"/>
				<path style="fill:#FFFFFF;" d="M286.359,157.843c1.1,0,2,0.899,2,2c0,1.109-0.9,2-2,2c-1.1,0-2-0.891-2-2
					C284.359,158.742,285.259,157.843,286.359,157.843 M286.359,155.843c-2.206,0-4,1.794-4,4s1.794,4,4,4c2.206,0,4-1.794,4-4
					S288.565,155.843,286.359,155.843L286.359,155.843z"/>
			</g>
			<g>
				<circle style="fill:#7F7F7F;" cx="286.359" cy="169.803" r="3"/>
				<path style="fill:#FFFFFF;" d="M286.359,167.803c1.1,0,2,0.899,2,2c0,1.109-0.9,2-2,2c-1.1,0-2-0.891-2-2
					C284.359,168.702,285.259,167.803,286.359,167.803 M286.359,165.803c-2.206,0-4,1.794-4,4s1.794,4,4,4c2.206,0,4-1.794,4-4
					S288.565,165.803,286.359,165.803L286.359,165.803z"/>
			</g>
			<g>
				<circle style="fill:#7F7F7F;" cx="286.359" cy="139.933" r="3"/>
				<path style="fill:#FFFFFF;" d="M286.359,137.933c1.1,0,2,0.89,2,2c0,1.1-0.9,2-2,2c-1.1,0-2-0.9-2-2
					C284.359,138.822,285.259,137.933,286.359,137.933 M286.359,135.933c-2.206,0-4,1.794-4,4s1.794,4,4,4c2.206,0,4-1.794,4-4
					S288.565,135.933,286.359,135.933L286.359,135.933z"/>
			</g>
			<g>
				<circle style="fill:#7F7F7F;" cx="286.359" cy="149.893" r="3"/>
				<path style="fill:#FFFFFF;" d="M286.359,147.893c1.1,0,2,0.89,2,2c0,1.1-0.9,2-2,2c-1.1,0-2-0.9-2-2
					C284.359,148.782,285.259,147.893,286.359,147.893 M286.359,145.893c-2.206,0-4,1.794-4,4s1.794,4,4,4c2.206,0,4-1.794,4-4
					S288.565,145.893,286.359,145.893L286.359,145.893z"/>
			</g>
			<g>
				<circle style="fill:#7F7F7F;" cx="286.359" cy="179.763" r="3"/>
				<path style="fill:#FFFFFF;" d="M286.359,177.763c1.1,0,2,0.89,2,2c0,1.1-0.9,2-2,2c-1.1,0-2-0.9-2-2
					C284.359,178.652,285.259,177.763,286.359,177.763 M286.359,175.763c-2.206,0-4,1.794-4,4s1.794,4,4,4c2.206,0,4-1.794,4-4
					S288.565,175.763,286.359,175.763L286.359,175.763z"/>
			</g>
			<g>
				<path style="fill:#7F7F7F;" d="M286.359,202.673c-1.654,0-3-1.342-3-2.99c0-1.654,1.346-3,3-3s3,1.346,3,3
					C289.359,201.331,288.014,202.673,286.359,202.673z"/>
				<path style="fill:#FFFFFF;" d="M286.359,197.683c1.1,0,2,0.89,2,2c0,1.1-0.9,1.99-2,1.99c-1.1,0-2-0.891-2-1.99
					C284.359,198.572,285.259,197.683,286.359,197.683 M286.359,195.683c-2.206,0-4,1.794-4,4c0,2.2,1.794,3.99,4,3.99
					c2.206,0,4-1.79,4-3.99C290.359,197.477,288.565,195.683,286.359,195.683L286.359,195.683z"/>
			</g>
			<g>
				<circle style="fill:#7F7F7F;" cx="286.359" cy="189.723" r="3"/>
				<path style="fill:#FFFFFF;" d="M286.359,187.723c1.1,0,2,0.89,2,2c0,1.1-0.9,2-2,2c-1.1,0-2-0.9-2-2
					C284.359,188.612,285.259,187.723,286.359,187.723 M286.359,185.723c-2.206,0-4,1.794-4,4s1.794,4,4,4c2.206,0,4-1.794,4-4
					S288.565,185.723,286.359,185.723L286.359,185.723z"/>
			</g>
			<g>
				<polygon style="fill:#7F7F7F;" points="268.587,196.33 272.981,192.238 286.356,206.631 299.734,192.238 304.127,196.33 
					286.355,215.441 				"/>
				<path style="fill:#FFFFFF;" d="M299.785,193.652l2.93,2.729l-16.359,17.592L270,196.381l2.93-2.729l13.05,14.042
					c0.124-0.022,0.251-0.033,0.377-0.033c0.126,0,0.252,0.011,0.376,0.033L299.785,193.652 M273.032,190.824l-1.465,1.365
					l-2.93,2.729l-1.462,1.362l1.361,1.463l16.355,17.592l1.465,1.575l1.465-1.575l16.359-17.592l1.361-1.464l-1.462-1.362
					l-2.93-2.729l-1.465-1.364l-1.363,1.466l-11.965,12.871l-11.961-12.871L273.032,190.824L273.032,190.824z"/>
			</g>
		</g>
	</g>
</g>
<g id="Layer_2" style="display:none;">
</g>
<g id="Layer_1" style="display:none;">
</g>
<g id="nyt_x5F_exporter_x5F_info" style="display:none;">
</g>
</svg>
