<svg version="1.1" xmlns="http://www.w3.org/2000/svg" xmlns:xlink="http://www.w3.org/1999/xlink" x="0px" y="0px"
	 viewBox="0 0 608 608" enable-background="new 0 0 608 608" xml:space="preserve">

<g id="home">
	<g>
		<g>
			<path fill="#FFFFFF" d="M408.219,330.455h-4.526v-31.597h-37.529v31.597h-4.482v-64.248h4.482v28.521h37.529v-28.521h4.526
				V330.455z"/>
			<path fill="#FFFFFF" d="M473.653,266.207v41.572c0,7.383-2.139,13.155-6.416,17.314c-4.277,4.16-10.239,6.24-17.886,6.24
				c-7.441,0-13.249-2.087-17.425-6.262c-4.174-4.175-6.262-9.998-6.262-17.469v-41.396h4.526v41.572
				c0,6.182,1.714,10.994,5.142,14.437s8.276,5.163,14.546,5.163c6.123,0,10.869-1.691,14.238-5.075s5.054-8.079,5.054-14.085
				v-42.012H473.653z"/>
			<path fill="#FFFFFF" d="M491.144,266.207h17.622c7.939,0,13.77,1.348,17.49,4.043c3.721,2.696,5.581,6.768,5.581,12.217
				c0,3.721-1.136,6.819-3.405,9.295c-2.271,2.476-5.589,4.064-9.954,4.768v0.264c5.127,0.763,8.899,2.381,11.315,4.856
				c2.418,2.476,3.626,5.926,3.626,10.349c0,5.918-1.963,10.475-5.889,13.667c-3.926,3.193-9.492,4.79-16.699,4.79h-19.688V266.207z
				 M495.626,294.815h14.15c6.035,0,10.422-1.003,13.161-3.01s4.109-5.149,4.109-9.427c0-4.277-1.546-7.383-4.637-9.316
				s-7.697-2.9-13.82-2.9h-12.964V294.815z M495.626,298.771V326.5h15.117c11.895,0,17.842-4.834,17.842-14.502
				c0-8.817-6.27-13.228-18.809-13.228H495.626z"/>
		</g>
		<rect x="69.528" y="258.455" fill="#FFFFFF" width="274" height="80"/>
		
			<image class="logo-placeholder" overflow="visible" width="518" height="134" xlink:href="/images/content/section-images/your.png"  transform="matrix(0.5 0 0 0.5 76.5278 264.9551)">
		</image>
	</g>
</g>
</svg>
