<svg version="1.1" xmlns="http://www.w3.org/2000/svg" xmlns:xlink="http://www.w3.org/1999/xlink" x="0px" y="0px"
	 viewBox="0 0 608 608" enable-background="new 0 0 608 608" xml:space="preserve">    
<g id="quickstart">
	<g>
		<path fill="white" d="M283.998,395.999c-0.541,0-1.086-0.109-1.607-0.34c-1.766-0.773-2.727-2.699-2.285-4.578l15.037-63.898l-39.857-7.25
			c-1.332-0.238-2.451-1.141-2.975-2.387c-0.523-1.25-0.379-2.676,0.381-3.797l68-100c1.086-1.596,3.164-2.182,4.918-1.412
			c1.766,0.775,2.727,2.701,2.285,4.578l-15.035,63.902l39.855,7.246c1.332,0.242,2.449,1.141,2.973,2.389s0.383,2.678-0.379,3.797
			l-68,100C286.543,395.374,285.289,395.999,283.998,395.999z M262.766,313.163l37.949,6.902c1.08,0.195,2.031,0.824,2.631,1.742
			c0.602,0.918,0.799,2.039,0.549,3.109l-11.051,46.965l52.391-77.047l-37.949-6.9c-1.08-0.195-2.031-0.826-2.631-1.744
			c-0.602-0.916-0.799-2.041-0.549-3.107l11.051-46.967L262.766,313.163z"/>
	</g>
	<path fill="white"  d="M304,184c66.168,0,120,53.832,120,120s-53.832,120-120,120s-120-53.832-120-120S237.832,184,304,184 M304,176
		c-70.693,0-128,57.308-128,128s57.307,128,128,128s128-57.308,128-128S374.693,176,304,176L304,176z"/>
</g>
    
</svg>
