<?xml version="1.0" encoding="iso-8859-1"?>
<!-- Generator: Adobe Illustrator 18.1.1, SVG Export Plug-In . SVG Version: 6.00 Build 0)  -->
<svg version="1.1" xmlns="http://www.w3.org/2000/svg" xmlns:xlink="http://www.w3.org/1999/xlink" x="0px" y="0px"
	 viewBox="0 0 576 576" style="enable-background:new 0 0 576 576;" xml:space="preserve">
<g id="Layer_2">
	<g>
		<path style="fill:#FFFFFF;" d="M168,90c-26.51,0-48,21.49-48,48c0,26.51,21.49,48,48,48c26.51,0,48-21.49,48-48
			C216,111.49,194.51,90,168,90z M168,183.5c-25.089,0-45.5-20.411-45.5-45.5c0-25.089,20.411-45.5,45.5-45.5
			c25.089,0,45.5,20.411,45.5,45.5C213.5,163.089,193.089,183.5,168,183.5z"/>
		<circle style="fill:#FFFFFF;" cx="168" cy="138" r="5.156"/>
		<path style="fill:#FFFFFF;" d="M168.326,120.992c-0.109-0.002-0.216-0.016-0.326-0.016c-0.099,0-0.194,0.013-0.292,0.015
			c-0.109,0.002-0.217-0.005-0.326-0.001c-16.034,0.534-26.957,15.573-27.414,16.213c-0.341,0.477-0.341,1.117,0,1.594
			c0.457,0.64,11.38,15.679,27.414,16.213c0.166,0.005,0.331,0.006,0.497,0.008c0.041,0,0.081,0.006,0.122,0.006
			c0.021,0,0.041-0.003,0.062-0.003c0.063,0,0.125,0.003,0.188,0.003c9.67,0,18.994-5.393,27.727-16.042
			c0.236-0.286,0.335-0.64,0.306-0.983c0.028-0.342-0.071-0.696-0.306-0.982C187.267,126.397,177.967,121.023,168.326,120.992z
			 M142.815,138c1.5-1.866,5.651-6.616,11.534-10.129c-2.109,2.834-3.373,6.333-3.373,10.129c0,3.796,1.264,7.294,3.373,10.128
			C148.466,144.615,144.315,139.866,142.815,138z M168.305,152.267c-0.189,0.001-0.378,0.006-0.567,0.002
			c-7.754-0.142-14.021-6.482-14.021-14.269c0-7.791,6.272-14.133,14.03-14.27c0.183-0.004,0.365,0.001,0.547,0.002
			c7.739,0.159,13.988,6.492,13.988,14.268C182.283,145.773,176.039,152.103,168.305,152.267z M181.458,148.387
			c2.226-2.878,3.566-6.475,3.566-10.387c0-3.915-1.342-7.515-3.571-10.394c4.002,2.38,7.934,5.839,11.776,10.394
			C189.39,142.55,185.458,146.007,181.458,148.387z"/>
		<rect x="251.043" y="123.723" style="fill:#FFFFFF;" width="1.992" height="28.555"/>
		<path style="fill:#FFFFFF;" d="M268.445,152.668c3.021,0,5.338-1.211,6.953-3.633h0.156l0.488,3.242h1.27v-30.391h-1.914v7.637
			c0,1.576,0.039,3.184,0.117,4.824h-0.117c-0.886-1.354-1.888-2.311-3.008-2.871c-1.12-0.56-2.448-0.84-3.984-0.84
			c-2.93,0-5.163,0.971-6.699,2.91c-1.537,1.94-2.305,4.746-2.305,8.418c0,3.49,0.774,6.146,2.324,7.969
			C263.276,151.757,265.516,152.668,268.445,152.668z M263.182,134.836c1.165-1.627,2.907-2.441,5.225-2.441
			c2.461,0,4.241,0.72,5.342,2.158c1.101,1.439,1.65,3.799,1.65,7.08v0.332c0,3.203-0.56,5.502-1.68,6.895
			c-1.12,1.394-2.878,2.09-5.273,2.09c-4.675,0-7.012-3.008-7.012-9.023C261.434,138.827,262.016,136.464,263.182,134.836z"/>
		<path style="fill:#FFFFFF;" d="M299.695,151.32v-1.758c-1.406,0.561-2.568,0.925-3.486,1.094c-0.918,0.17-1.982,0.254-3.193,0.254
			c-2.487,0-4.397-0.768-5.732-2.305c-1.335-1.536-2.015-3.763-2.041-6.68h15.293v-1.563c0-2.994-0.723-5.364-2.168-7.109
			c-1.445-1.744-3.418-2.617-5.918-2.617c-2.825,0-5.071,1.02-6.738,3.057c-1.667,2.038-2.5,4.75-2.5,8.135
			c0,3.425,0.862,6.088,2.588,7.988c1.726,1.901,4.131,2.852,7.217,2.852c1.224,0,2.344-0.095,3.359-0.283
			S298.497,151.842,299.695,151.32z M287.527,134.377c1.237-1.348,2.878-2.021,4.922-2.021c1.888,0,3.366,0.693,4.434,2.08
			s1.602,3.311,1.602,5.771h-13.125C285.567,137.668,286.29,135.725,287.527,134.377z"/>
		<path style="fill:#FFFFFF;" d="M308.328,140.559c0-2.877,0.589-4.957,1.768-6.24c1.179-1.282,3.037-1.924,5.576-1.924
			c1.888,0,3.281,0.485,4.18,1.455c0.898,0.971,1.348,2.523,1.348,4.658v13.77h1.914v-13.887c0-5.169-2.409-7.754-7.227-7.754
			c-3.528,0-5.983,1.107-7.363,3.32h-0.117l-0.371-2.91h-1.641v21.23h1.934V140.559z"/>
		<path style="fill:#FFFFFF;" d="M330.066,146.438c0,2.148,0.446,3.725,1.338,4.727c0.892,1.003,2.275,1.504,4.15,1.504
			c1.224,0,2.305-0.156,3.242-0.469v-1.563c-0.911,0.209-1.979,0.313-3.203,0.313s-2.122-0.391-2.695-1.172
			s-0.859-1.985-0.859-3.613v-13.438h6.23v-1.68h-6.23v-5.137h-0.996l-0.977,4.805l-3.145,0.879v1.133h3.145V146.438z"/>
		<rect x="343.387" y="131.047" style="fill:#FFFFFF;" width="1.934" height="21.23"/>
		<path style="fill:#FFFFFF;" d="M344.344,127.043c0.403,0,0.72-0.169,0.947-0.508c0.228-0.338,0.342-0.801,0.342-1.387
			c0-0.599-0.114-1.061-0.342-1.387c-0.228-0.325-0.544-0.488-0.947-0.488c-0.82,0-1.23,0.625-1.23,1.875
			C343.113,126.412,343.523,127.043,344.344,127.043z"/>
		<path style="fill:#FFFFFF;" d="M352.508,146.438c0,2.148,0.446,3.725,1.338,4.727c0.892,1.003,2.275,1.504,4.15,1.504
			c1.224,0,2.305-0.156,3.242-0.469v-1.563c-0.911,0.209-1.979,0.313-3.203,0.313s-2.122-0.391-2.695-1.172
			s-0.859-1.985-0.859-3.613v-13.438h6.23v-1.68h-6.23v-5.137h-0.996l-0.977,4.805l-3.145,0.879v1.133h3.145V146.438z"/>
		<path style="fill:#FFFFFF;" d="M369.354,155.061c-0.54,1.426-1.016,2.468-1.426,3.125s-0.869,1.143-1.377,1.455
			s-1.094,0.469-1.758,0.469c-0.872,0-1.687-0.104-2.441-0.313v1.68c0.911,0.273,1.738,0.41,2.48,0.41
			c0.989,0,1.833-0.176,2.529-0.527s1.306-0.879,1.826-1.582s1.165-2.058,1.934-4.063l9.512-24.668h-1.992l-4.492,11.797
			c-1.237,3.334-2.129,5.84-2.676,7.52h-0.117c-0.364-1.275-1.23-3.743-2.598-7.402l-4.492-11.914h-1.992l8.125,21.23
			C370.242,152.707,369.894,153.635,369.354,155.061z"/>
		<path style="fill:#FFFFFF;" d="M253.035,257.48h4.414c3.438,0,6.094-0.735,7.969-2.207c1.875-1.471,2.813-3.587,2.813-6.348
			c0-5.469-3.398-8.203-10.195-8.203h-6.992v28.555h1.992V257.48z M253.035,242.52h4.727c2.838,0,4.935,0.531,6.289,1.592
			c1.354,1.062,2.031,2.692,2.031,4.893c0,2.383-0.716,4.105-2.148,5.166c-1.433,1.062-3.757,1.592-6.973,1.592h-3.926V242.52z"/>
		<path style="fill:#FFFFFF;" d="M275.789,251.875l-0.195-3.828h-1.641v21.23h1.934v-11.719c0-2.344,0.579-4.283,1.738-5.82
			c1.159-1.536,2.644-2.305,4.453-2.305c0.95,0,1.868,0.111,2.754,0.332l0.371-1.855c-1.028-0.182-1.992-0.273-2.891-0.273
			c-1.406,0-2.604,0.316-3.594,0.947c-0.989,0.632-1.921,1.729-2.793,3.291H275.789z"/>
		<path style="fill:#FFFFFF;" d="M291.424,240.762c-0.228-0.325-0.544-0.488-0.947-0.488c-0.82,0-1.23,0.625-1.23,1.875
			c0,1.264,0.41,1.895,1.23,1.895c0.403,0,0.72-0.169,0.947-0.508c0.228-0.338,0.342-0.801,0.342-1.387
			C291.766,241.55,291.651,241.088,291.424,240.762z"/>
		<rect x="289.52" y="248.047" style="fill:#FFFFFF;" width="1.934" height="21.23"/>
		<path style="fill:#FFFFFF;" d="M298.563,248.047v21.23h1.934v-11.719c0-2.852,0.508-4.925,1.523-6.221
			c1.016-1.295,2.637-1.943,4.863-1.943c3.281,0,4.922,1.791,4.922,5.371v14.512h1.973v-12.441c0-2.564,0.521-4.446,1.563-5.645
			c1.042-1.197,2.649-1.797,4.824-1.797c1.667,0,2.903,0.476,3.711,1.426c0.808,0.951,1.211,2.461,1.211,4.531v13.926H327v-13.887
			c0-2.695-0.579-4.661-1.738-5.898c-1.159-1.236-2.897-1.855-5.215-1.855c-1.484,0-2.81,0.326-3.975,0.977
			c-1.165,0.651-2.093,1.582-2.783,2.793h-0.078c-0.95-2.513-3.099-3.77-6.445-3.77c-1.302,0-2.493,0.29-3.574,0.869
			c-1.081,0.58-1.914,1.396-2.5,2.451h-0.117l-0.41-2.91H298.563z"/>
		<path style="fill:#FFFFFF;" d="M335.047,250.996c2.109-1.094,4.147-1.641,6.113-1.641c1.823,0,3.145,0.515,3.965,1.543
			c0.82,1.029,1.23,2.553,1.23,4.57v1.406l-4.043,0.117c-3.269,0.065-5.765,0.671-7.49,1.816c-1.726,1.146-2.588,2.754-2.588,4.824
			c0,1.889,0.579,3.366,1.738,4.434c1.159,1.068,2.78,1.602,4.863,1.602c1.536,0,2.868-0.283,3.994-0.85s2.224-1.533,3.291-2.9
			h0.156l0.488,3.359h1.426v-14.121c0-2.564-0.576-4.453-1.729-5.664s-2.894-1.816-5.225-1.816c-2.278,0-4.583,0.547-6.914,1.641
			L335.047,250.996z M346.277,260.566c0,2.305-0.654,4.105-1.963,5.4c-1.309,1.296-3.096,1.943-5.361,1.943
			c-1.484,0-2.634-0.367-3.447-1.104c-0.813-0.735-1.221-1.768-1.221-3.096c0-1.666,0.635-2.894,1.904-3.682
			c1.27-0.787,3.396-1.253,6.377-1.396l3.711-0.156V260.566z"/>
		<path style="fill:#FFFFFF;" d="M358.738,251.738c1.159-1.536,2.644-2.305,4.453-2.305c0.95,0,1.868,0.111,2.754,0.332l0.371-1.855
			c-1.028-0.182-1.992-0.273-2.891-0.273c-1.406,0-2.604,0.316-3.594,0.947c-0.989,0.632-1.921,1.729-2.793,3.291h-0.137
			l-0.195-3.828h-1.641v21.23H357v-11.719C357,255.215,357.579,253.275,358.738,251.738z"/>
		<path style="fill:#FFFFFF;" d="M376.277,267.363h-0.117c-0.364-1.275-1.23-3.743-2.598-7.402l-4.492-11.914h-1.992l8.125,21.23
			c-0.156,0.43-0.505,1.357-1.045,2.783s-1.016,2.468-1.426,3.125s-0.869,1.143-1.377,1.455s-1.094,0.469-1.758,0.469
			c-0.872,0-1.687-0.104-2.441-0.313v1.68c0.911,0.273,1.738,0.41,2.48,0.41c0.989,0,1.833-0.176,2.529-0.527
			s1.306-0.879,1.826-1.582s1.165-2.058,1.934-4.063l9.512-24.668h-1.992l-4.492,11.797
			C377.716,263.178,376.824,265.684,376.277,267.363z"/>
		<path style="fill:#FFFFFF;" d="M255.916,282.119c-2.064,1.205-3.646,2.914-4.746,5.127c-1.101,2.214-1.65,4.772-1.65,7.676
			c0,4.648,1.152,8.269,3.457,10.859c2.305,2.592,5.462,3.887,9.473,3.887c2.825,0,5.182-0.332,7.07-0.996v-1.758
			c-2.005,0.612-4.206,0.918-6.602,0.918c-3.607,0-6.38-1.126-8.32-3.379c-1.94-2.252-2.91-5.416-2.91-9.492
			c0-3.984,1.028-7.122,3.086-9.414c2.057-2.291,4.876-3.438,8.457-3.438c2.292,0,4.479,0.521,6.563,1.563l0.801-1.797
			c-2.201-1.041-4.694-1.563-7.48-1.563C260.379,280.313,257.979,280.915,255.916,282.119z"/>
		<path style="fill:#FFFFFF;" d="M283.602,287.637c-2.93,0-5.234,0.967-6.914,2.9s-2.52,4.633-2.52,8.096
			c0,2.201,0.378,4.141,1.133,5.82s1.843,2.969,3.262,3.867s3.06,1.348,4.922,1.348c2.956,0,5.273-0.973,6.953-2.92
			c1.68-1.946,2.52-4.651,2.52-8.115c0-3.411-0.83-6.097-2.49-8.057C288.807,288.617,286.519,287.637,283.602,287.637z
			 M289.002,305.459c-1.282,1.635-3.096,2.451-5.439,2.451s-4.157-0.816-5.439-2.451c-1.282-1.634-1.924-3.909-1.924-6.826
			c0-2.942,0.635-5.218,1.904-6.826c1.27-1.607,3.076-2.412,5.42-2.412s4.163,0.808,5.459,2.422
			c1.296,1.615,1.943,3.887,1.943,6.816C290.926,301.55,290.284,303.825,289.002,305.459z"/>
		<path style="fill:#FFFFFF;" d="M308.328,287.637c-3.528,0-5.983,1.107-7.363,3.32h-0.117l-0.371-2.91h-1.641v21.23h1.934v-11.719
			c0-2.877,0.589-4.957,1.768-6.24c1.179-1.282,3.037-1.924,5.576-1.924c1.888,0,3.281,0.485,4.18,1.455
			c0.898,0.971,1.348,2.523,1.348,4.658v13.77h1.914v-13.887C315.555,290.222,313.146,287.637,308.328,287.637z"/>
		<path style="fill:#FFFFFF;" d="M323.484,282.91l-0.977,4.805l-3.145,0.879v1.133h3.145v13.711c0,2.148,0.446,3.725,1.338,4.727
			c0.892,1.003,2.275,1.504,4.15,1.504c1.224,0,2.305-0.156,3.242-0.469v-1.563c-0.911,0.209-1.979,0.313-3.203,0.313
			s-2.122-0.391-2.695-1.172s-0.859-1.985-0.859-3.613v-13.438h6.23v-1.68h-6.23v-5.137H323.484z"/>
		<path style="fill:#FFFFFF;" d="M337.098,290.693c-1.667,2.038-2.5,4.75-2.5,8.135c0,3.425,0.862,6.088,2.588,7.988
			c1.726,1.901,4.131,2.852,7.217,2.852c1.224,0,2.344-0.095,3.359-0.283s2.122-0.543,3.32-1.064v-1.758
			c-1.406,0.561-2.568,0.925-3.486,1.094c-0.918,0.17-1.982,0.254-3.193,0.254c-2.487,0-4.397-0.768-5.732-2.305
			c-1.335-1.536-2.015-3.763-2.041-6.68h15.293v-1.563c0-2.994-0.723-5.364-2.168-7.109c-1.445-1.744-3.418-2.617-5.918-2.617
			C341.011,287.637,338.765,288.656,337.098,290.693z M348.27,291.436c1.067,1.387,1.602,3.311,1.602,5.771h-13.125
			c0.208-2.539,0.931-4.482,2.168-5.83s2.878-2.021,4.922-2.021C345.724,289.355,347.202,290.049,348.27,291.436z"/>
		<path style="fill:#FFFFFF;" d="M374.5,309.277v-13.887c0-5.169-2.409-7.754-7.227-7.754c-3.528,0-5.983,1.107-7.363,3.32h-0.117
			l-0.371-2.91h-1.641v21.23h1.934v-11.719c0-2.877,0.589-4.957,1.768-6.24c1.179-1.282,3.037-1.924,5.576-1.924
			c1.888,0,3.281,0.485,4.18,1.455c0.898,0.971,1.348,2.523,1.348,4.658v13.77H374.5z"/>
		<path style="fill:#FFFFFF;" d="M389.656,289.727v-1.68h-6.23v-5.137h-0.996l-0.977,4.805l-3.145,0.879v1.133h3.145v13.711
			c0,2.148,0.446,3.725,1.338,4.727c0.892,1.003,2.275,1.504,4.15,1.504c1.224,0,2.305-0.156,3.242-0.469v-1.563
			c-0.911,0.209-1.979,0.313-3.203,0.313s-2.122-0.391-2.695-1.172s-0.859-1.985-0.859-3.613v-13.438H389.656z"/>
		<path style="fill:#FFFFFF;" d="M264.178,408.578c1.751-1.394,2.627-3.281,2.627-5.664c0-1.302-0.257-2.412-0.771-3.33
			c-0.515-0.918-1.332-1.738-2.451-2.461c-1.12-0.723-2.793-1.468-5.02-2.236c-2.123-0.755-3.62-1.403-4.492-1.943
			c-0.873-0.54-1.501-1.149-1.885-1.826c-0.384-0.677-0.576-1.543-0.576-2.598c0-1.68,0.625-3.008,1.875-3.984
			s2.93-1.465,5.039-1.465c2.161,0,4.427,0.495,6.797,1.484l0.723-1.719c-2.357-1.016-4.876-1.523-7.559-1.523
			c-2.63,0-4.782,0.674-6.455,2.021c-1.673,1.348-2.51,3.089-2.51,5.225c0,1.94,0.557,3.493,1.67,4.658s3.128,2.249,6.045,3.252
			c1.992,0.677,3.502,1.309,4.531,1.895c1.028,0.586,1.771,1.233,2.227,1.943c0.456,0.71,0.684,1.604,0.684,2.686
			c0,1.745-0.687,3.154-2.061,4.229c-1.374,1.074-3.232,1.611-5.576,1.611c-3.19,0-5.814-0.437-7.871-1.309v1.992
			c1.862,0.768,4.538,1.152,8.027,1.152C260.099,410.668,262.426,409.972,264.178,408.578z"/>
		<path style="fill:#FFFFFF;" d="M286.727,407.348h0.117l0.352,2.93h1.641v-21.23h-1.914v11.719c0,2.878-0.596,4.954-1.787,6.23
			s-3.05,1.914-5.576,1.914c-1.888,0-3.281-0.485-4.18-1.455s-1.348-2.522-1.348-4.658v-13.75h-1.914v13.867
			c0,5.169,2.415,7.754,7.246,7.754C282.892,410.668,285.347,409.562,286.727,407.348z"/>
		<path style="fill:#FFFFFF;" d="M305.027,410.668c2.734,0,4.893-0.96,6.475-2.881s2.373-4.626,2.373-8.115
			c0-3.594-0.752-6.331-2.256-8.213s-3.688-2.822-6.553-2.822c-3.203,0-5.534,1.146-6.992,3.438h-0.117l-0.371-3.027h-1.641v30.84
			h1.934v-8.086c0-1.146-0.026-2.2-0.078-3.164l-0.059-1.641h0.137C299.376,409.444,301.759,410.668,305.027,410.668z
			 M297.879,399.086c0-3.073,0.579-5.29,1.738-6.65s2.976-2.041,5.449-2.041c4.505,0,6.758,3.118,6.758,9.355
			c0,2.903-0.596,5.163-1.787,6.777s-2.874,2.422-5.049,2.422c-2.513,0-4.326-0.71-5.439-2.129s-1.67-3.789-1.67-7.109V399.086z"/>
		<path style="fill:#FFFFFF;" d="M328.836,410.668c2.734,0,4.893-0.96,6.475-2.881s2.373-4.626,2.373-8.115
			c0-3.594-0.752-6.331-2.256-8.213s-3.688-2.822-6.553-2.822c-3.203,0-5.534,1.146-6.992,3.438h-0.117l-0.371-3.027h-1.641v30.84
			h1.934v-8.086c0-1.146-0.026-2.2-0.078-3.164l-0.059-1.641h0.137C323.185,409.444,325.567,410.668,328.836,410.668z
			 M321.688,399.086c0-3.073,0.579-5.29,1.738-6.65s2.976-2.041,5.449-2.041c4.505,0,6.758,3.118,6.758,9.355
			c0,2.903-0.596,5.163-1.787,6.777s-2.874,2.422-5.049,2.422c-2.513,0-4.326-0.71-5.439-2.129s-1.67-3.789-1.67-7.109V399.086z"/>
		<path style="fill:#FFFFFF;" d="M344.852,391.537c-1.68,1.934-2.52,4.632-2.52,8.096c0,2.2,0.378,4.141,1.133,5.82
			s1.843,2.969,3.262,3.867s3.06,1.348,4.922,1.348c2.956,0,5.273-0.974,6.953-2.92s2.52-4.651,2.52-8.115
			c0-3.411-0.83-6.097-2.49-8.057s-3.948-2.939-6.865-2.939C348.836,388.637,346.531,389.604,344.852,391.537z M357.146,392.816
			c1.296,1.614,1.943,3.887,1.943,6.816c0,2.917-0.642,5.192-1.924,6.826s-3.096,2.451-5.439,2.451s-4.157-0.817-5.439-2.451
			s-1.924-3.909-1.924-6.826c0-2.942,0.635-5.218,1.904-6.826s3.076-2.412,5.42-2.412S355.851,391.202,357.146,392.816z"/>
		<path style="fill:#FFFFFF;" d="M371.766,389.584c-0.989,0.632-1.921,1.729-2.793,3.291h-0.137l-0.195-3.828H367v21.23h1.934
			v-11.719c0-2.344,0.579-4.284,1.738-5.82s2.644-2.305,4.453-2.305c0.95,0,1.868,0.11,2.754,0.332l0.371-1.855
			c-1.028-0.183-1.992-0.273-2.891-0.273C373.953,388.637,372.755,388.952,371.766,389.584z"/>
		<path style="fill:#FFFFFF;" d="M385.477,407.777c-0.573-0.781-0.859-1.985-0.859-3.613v-13.438h6.23v-1.68h-6.23v-5.137h-0.996
			l-0.977,4.805l-3.145,0.879v1.133h3.145v13.711c0,2.148,0.446,3.724,1.338,4.727s2.275,1.504,4.15,1.504
			c1.224,0,2.305-0.156,3.242-0.469v-1.563c-0.911,0.208-1.979,0.313-3.203,0.313S386.05,408.559,385.477,407.777z"/>
		<rect x="395.965" y="389.047" style="fill:#FFFFFF;" width="1.934" height="21.23"/>
		<path style="fill:#FFFFFF;" d="M396.922,381.273c-0.82,0-1.23,0.625-1.23,1.875c0,1.263,0.41,1.895,1.23,1.895
			c0.403,0,0.72-0.169,0.947-0.508s0.342-0.801,0.342-1.387c0-0.599-0.114-1.062-0.342-1.387S397.325,381.273,396.922,381.273z"/>
		<path style="fill:#FFFFFF;" d="M414.5,388.637c-3.528,0-5.983,1.106-7.363,3.32h-0.117l-0.371-2.91h-1.641v21.23h1.934v-11.719
			c0-2.878,0.589-4.958,1.768-6.24s3.037-1.924,5.576-1.924c1.888,0,3.281,0.485,4.18,1.455s1.348,2.522,1.348,4.658v13.77h1.914
			v-13.887C421.727,391.222,419.317,388.637,414.5,388.637z"/>
		<path style="fill:#FFFFFF;" d="M445.164,389.047h-6.797c-0.769-0.273-1.849-0.41-3.242-0.41c-2.292,0-4.111,0.642-5.459,1.924
			s-2.021,2.985-2.021,5.107c0,1.406,0.345,2.653,1.035,3.74s1.653,1.885,2.891,2.393c-1.81,1.081-2.715,2.331-2.715,3.75
			c0,0.651,0.192,1.228,0.576,1.729s0.896,0.889,1.533,1.162c-1.55,0.352-2.776,1.009-3.682,1.973
			c-0.905,0.963-1.357,2.174-1.357,3.633c0,1.836,0.732,3.268,2.197,4.297c1.465,1.028,3.532,1.543,6.201,1.543
			c3.359,0,5.947-0.609,7.764-1.826c1.816-1.218,2.725-2.946,2.725-5.186c0-1.823-0.612-3.2-1.836-4.131s-2.988-1.396-5.293-1.396
			h-3.711c-1.211,0-2.073-0.156-2.588-0.469s-0.771-0.808-0.771-1.484c0-0.612,0.202-1.191,0.605-1.738s0.989-1.022,1.758-1.426
			c0.391,0.078,1.067,0.117,2.031,0.117c2.292,0,4.118-0.635,5.479-1.904s2.041-2.927,2.041-4.971c0-1.745-0.586-3.347-1.758-4.805
			l4.395-0.273V389.047z M433.816,409.281h3.477c1.953,0,3.366,0.286,4.238,0.859c0.872,0.572,1.309,1.497,1.309,2.773
			c0,3.555-2.786,5.332-8.359,5.332c-4.336,0-6.504-1.459-6.504-4.375C427.977,410.811,429.923,409.281,433.816,409.281z
			 M439.158,399.496c-0.944,0.898-2.302,1.348-4.072,1.348c-1.667,0-2.998-0.452-3.994-1.357s-1.494-2.178-1.494-3.818
			c0-1.731,0.485-3.083,1.455-4.053s2.302-1.455,3.994-1.455c1.745,0,3.103,0.452,4.072,1.357s1.455,2.263,1.455,4.072
			C440.574,397.296,440.103,398.598,439.158,399.496z"/>
		<path style="fill:#FFFFFF;" d="M255.916,423.119c-2.064,1.204-3.646,2.913-4.746,5.127c-1.101,2.214-1.65,4.772-1.65,7.676
			c0,4.648,1.152,8.269,3.457,10.859s5.462,3.887,9.473,3.887c2.825,0,5.182-0.332,7.07-0.996v-1.758
			c-2.005,0.612-4.206,0.918-6.602,0.918c-3.607,0-6.38-1.126-8.32-3.379c-1.94-2.253-2.91-5.417-2.91-9.492
			c0-3.984,1.028-7.122,3.086-9.414c2.057-2.292,4.876-3.438,8.457-3.438c2.292,0,4.479,0.521,6.563,1.563l0.801-1.797
			c-2.201-1.042-4.694-1.563-7.48-1.563C260.379,421.313,257.979,421.915,255.916,423.119z"/>
		<path style="fill:#FFFFFF;" d="M283.602,428.637c-2.93,0-5.234,0.967-6.914,2.9s-2.52,4.632-2.52,8.096
			c0,2.2,0.378,4.141,1.133,5.82s1.843,2.969,3.262,3.867s3.06,1.348,4.922,1.348c2.956,0,5.273-0.974,6.953-2.92
			s2.52-4.651,2.52-8.115c0-3.411-0.83-6.097-2.49-8.057S286.519,428.637,283.602,428.637z M289.002,446.459
			c-1.282,1.634-3.096,2.451-5.439,2.451s-4.157-0.817-5.439-2.451s-1.924-3.909-1.924-6.826c0-2.942,0.635-5.218,1.904-6.826
			s3.076-2.412,5.42-2.412s4.163,0.808,5.459,2.422s1.943,3.887,1.943,6.816C290.926,442.55,290.284,444.825,289.002,446.459z"/>
		<path style="fill:#FFFFFF;" d="M308.328,428.637c-3.528,0-5.983,1.106-7.363,3.32h-0.117l-0.371-2.91h-1.641v21.23h1.934v-11.719
			c0-2.878,0.589-4.958,1.768-6.24s3.037-1.924,5.576-1.924c1.888,0,3.281,0.485,4.18,1.455s1.348,2.522,1.348,4.658v13.77h1.914
			v-13.887C315.555,431.222,313.146,428.637,308.328,428.637z"/>
		<path style="fill:#FFFFFF;" d="M325.34,447.777c-0.573-0.781-0.859-1.985-0.859-3.613v-13.438h6.23v-1.68h-6.23v-5.137h-0.996
			l-0.977,4.805l-3.145,0.879v1.133h3.145v13.711c0,2.148,0.446,3.724,1.338,4.727s2.275,1.504,4.15,1.504
			c1.224,0,2.305-0.156,3.242-0.469v-1.563c-0.911,0.208-1.979,0.313-3.203,0.313S325.913,448.559,325.34,447.777z"/>
		<path style="fill:#FFFFFF;" d="M343.836,428.637c-2.825,0-5.071,1.019-6.738,3.057s-2.5,4.749-2.5,8.135
			c0,3.425,0.862,6.087,2.588,7.988s4.131,2.852,7.217,2.852c1.224,0,2.344-0.095,3.359-0.283s2.122-0.544,3.32-1.064v-1.758
			c-1.406,0.56-2.568,0.925-3.486,1.094s-1.982,0.254-3.193,0.254c-2.487,0-4.397-0.769-5.732-2.305s-2.015-3.763-2.041-6.68h15.293
			v-1.563c0-2.995-0.723-5.364-2.168-7.109S346.336,428.637,343.836,428.637z M336.746,438.207c0.208-2.539,0.931-4.482,2.168-5.83
			s2.878-2.021,4.922-2.021c1.888,0,3.366,0.693,4.434,2.08s1.602,3.311,1.602,5.771H336.746z"/>
		<path style="fill:#FFFFFF;" d="M367.273,428.637c-3.528,0-5.983,1.106-7.363,3.32h-0.117l-0.371-2.91h-1.641v21.23h1.934v-11.719
			c0-2.878,0.589-4.958,1.768-6.24s3.037-1.924,5.576-1.924c1.888,0,3.281,0.485,4.18,1.455s1.348,2.522,1.348,4.658v13.77h1.914
			v-13.887C374.5,431.222,372.091,428.637,367.273,428.637z"/>
		<path style="fill:#FFFFFF;" d="M384.285,447.777c-0.573-0.781-0.859-1.985-0.859-3.613v-13.438h6.23v-1.68h-6.23v-5.137h-0.996
			l-0.977,4.805l-3.145,0.879v1.133h3.145v13.711c0,2.148,0.446,3.724,1.338,4.727s2.275,1.504,4.15,1.504
			c1.224,0,2.305-0.156,3.242-0.469v-1.563c-0.911,0.208-1.979,0.313-3.203,0.313S384.858,448.559,384.285,447.777z"/>
		<path style="fill:#FFFFFF;" d="M168,230c-26.51,0-48,21.49-48,48c0,26.51,21.49,48,48,48c26.51,0,48-21.49,48-48
			C216,251.49,194.51,230,168,230z M168,323.5c-25.089,0-45.5-20.411-45.5-45.5c0-25.089,20.411-45.5,45.5-45.5
			c25.089,0,45.5,20.411,45.5,45.5C213.5,303.089,193.089,323.5,168,323.5z"/>
		<path style="fill:#FFFFFF;" d="M158,254h-13c-2.209,0-4,1.791-4,4v13c0,2.209,1.791,4,4,4h13c2.209,0,4-1.791,4-4v-13
			C162,255.791,160.209,254,158,254z M159.5,271c0,0.827-0.673,1.5-1.5,1.5h-13c-0.827,0-1.5-0.673-1.5-1.5v-13
			c0-0.827,0.673-1.5,1.5-1.5h13c0.827,0,1.5,0.673,1.5,1.5V271z"/>
		<path style="fill:#FFFFFF;" d="M195,255h-28c-1.105,0-2,0.895-2,2c0,1.104,0.895,2,2,2h28c1.105,0,2-0.896,2-2
			C197,255.895,196.105,255,195,255z"/>
		<path style="fill:#FFFFFF;" d="M167,266h20c1.105,0,2-0.896,2-2c0-1.105-0.895-2-2-2h-20c-1.105,0-2,0.895-2,2
			C165,265.104,165.895,266,167,266z"/>
		<path style="fill:#FFFFFF;" d="M167,273h24c1.105,0,2-0.896,2-2c0-1.105-0.895-2-2-2h-24c-1.105,0-2,0.895-2,2
			C165,272.104,165.895,273,167,273z"/>
		<path style="fill:#FFFFFF;" d="M158,279h-13c-2.209,0-4,1.791-4,4v13c0,2.209,1.791,4,4,4h13c2.209,0,4-1.791,4-4v-13
			C162,280.791,160.209,279,158,279z M159.5,296c0,0.827-0.673,1.5-1.5,1.5h-13c-0.827,0-1.5-0.673-1.5-1.5v-13
			c0-0.827,0.673-1.5,1.5-1.5h13c0.827,0,1.5,0.673,1.5,1.5V296z"/>
		<path style="fill:#FFFFFF;" d="M195,280h-28c-1.105,0-2,0.895-2,2c0,1.104,0.895,2,2,2h28c1.105,0,2-0.896,2-2
			C197,280.895,196.105,280,195,280z"/>
		<path style="fill:#FFFFFF;" d="M167,291h20c1.105,0,2-0.896,2-2c0-1.105-0.895-2-2-2h-20c-1.105,0-2,0.895-2,2
			C165,290.104,165.895,291,167,291z"/>
		<path style="fill:#FFFFFF;" d="M191,294h-24c-1.105,0-2,0.895-2,2c0,1.104,0.895,2,2,2h24c1.105,0,2-0.896,2-2
			C193,294.895,192.105,294,191,294z"/>
		<path style="fill:#FFFFFF;" d="M168,370c-26.51,0-48,21.49-48,48c0,26.51,21.49,48,48,48c26.51,0,48-21.49,48-48
			C216,391.49,194.51,370,168,370z M168,463.5c-25.089,0-45.5-20.411-45.5-45.5c0-25.089,20.411-45.5,45.5-45.5
			c25.089,0,45.5,20.411,45.5,45.5C213.5,443.089,193.089,463.5,168,463.5z"/>
		<path style="fill:#FFFFFF;" d="M154.5,395.5h-7c-1.105,0-2,0.895-2,2v7c0,1.104,0.895,2,2,2h7c1.105,0,2-0.896,2-2v-7
			C156.5,396.395,155.605,395.5,154.5,395.5z"/>
		<path style="fill:#FFFFFF;" d="M171.5,395.5h-7c-1.105,0-2,0.895-2,2v7c0,1.104,0.895,2,2,2h7c1.105,0,2-0.896,2-2v-7
			C173.5,396.395,172.605,395.5,171.5,395.5z"/>
		<path style="fill:#FFFFFF;" d="M188.5,395.5h-7c-1.105,0-2,0.895-2,2v7c0,1.104,0.895,2,2,2h7c1.105,0,2-0.896,2-2v-7
			C190.5,396.395,189.605,395.5,188.5,395.5z"/>
		<path style="fill:#FFFFFF;" d="M154.5,412.5h-7c-1.105,0-2,0.895-2,2v7c0,1.104,0.895,2,2,2h7c1.105,0,2-0.896,2-2v-7
			C156.5,413.395,155.605,412.5,154.5,412.5z"/>
		<path style="fill:#FFFFFF;" d="M171.5,412.5h-7c-1.105,0-2,0.895-2,2v7c0,1.104,0.895,2,2,2h7c1.105,0,2-0.896,2-2v-7
			C173.5,413.395,172.605,412.5,171.5,412.5z"/>
		<path style="fill:#FFFFFF;" d="M188.5,412.5h-7c-1.105,0-2,0.895-2,2v7c0,1.104,0.895,2,2,2h7c1.105,0,2-0.896,2-2v-7
			C190.5,413.395,189.605,412.5,188.5,412.5z"/>
		<path style="fill:#FFFFFF;" d="M154.5,429.5h-7c-1.105,0-2,0.895-2,2v7c0,1.104,0.895,2,2,2h7c1.105,0,2-0.896,2-2v-7
			C156.5,430.395,155.605,429.5,154.5,429.5z"/>
		<path style="fill:#FFFFFF;" d="M171.5,429.5h-7c-1.105,0-2,0.895-2,2v7c0,1.104,0.895,2,2,2h7c1.105,0,2-0.896,2-2v-7
			C173.5,430.395,172.605,429.5,171.5,429.5z"/>
		<path style="fill:#FFFFFF;" d="M188.5,429.5h-7c-1.105,0-2,0.895-2,2v7c0,1.104,0.895,2,2,2h7c1.105,0,2-0.896,2-2v-7
			C190.5,430.395,189.605,429.5,188.5,429.5z"/>
	</g>
</g>
<g id="Layer_1">
</g>
</svg>
