<svg width="128" height="32" xmlns="http://www.w3.org/2000/svg" xmlns:svg="http://www.w3.org/2000/svg">
 <g>
  <title>Layer 1</title>
  <g stroke="null" id="svg_1">
   <path stroke="null" id="svg_2" d="m0,30.37661l0,-29.99209l8.07479,0l0,23.45535l11.53542,0l0,6.53674l-19.61021,0z" class="brand-primary" fill="#A0C7E5"/>
   <path stroke="null" id="svg_3" d="m52.2939,15.38056c0,4.99868 -1.15354,8.84382 -3.65288,11.53542c-2.49934,2.6916 -6.15222,3.84514 -10.76639,3.84514c-4.61417,0 -8.26705,-1.3458 -10.76639,-4.0374c-2.49934,-2.6916 -3.84514,-6.53674 -3.84514,-11.53542c0,-4.99868 1.15354,-8.84382 3.65288,-11.34316s6.15222,-3.84514 10.76639,-3.84514c4.80642,0 8.26705,1.3458 10.76639,3.84514c2.6916,2.6916 3.84514,6.53674 3.84514,11.53542zm-20.5715,0c0,5.76771 1.92257,8.65156 5.95997,8.65156c2.11483,0 3.65288,-0.76903 4.61417,-2.11483s1.53806,-3.65288 1.53806,-6.53674c0,-3.07611 -0.57677,-5.19094 -1.53806,-6.53674c-0.96128,-1.3458 -2.49934,-2.11483 -4.42191,-2.11483c-4.0374,-0.19226 -6.15222,2.88385 -6.15222,8.65156z" class="brand-primary" fill="#A0C7E5"/>
   <path stroke="null" id="svg_4" d="m69.78929,12.88122l12.88122,0l0,16.14959c-3.46063,1.15354 -7.30577,1.73031 -11.53542,1.73031c-4.61417,0 -8.07479,-1.3458 -10.76639,-4.0374c-2.49934,-2.6916 -3.84514,-6.53674 -3.84514,-11.34316c0,-4.80642 1.3458,-8.65156 4.0374,-11.34316c2.88385,-2.6916 6.72899,-4.0374 11.72768,-4.0374c1.92257,0 3.65288,0.19226 5.3832,0.57677s3.07611,0.76903 4.42191,1.3458l-2.49934,6.34448c-2.11483,-1.15354 -4.42191,-1.53806 -7.11351,-1.53806c-2.30708,0 -4.22965,0.76903 -5.3832,2.30708c-1.3458,1.53806 -1.92257,3.65288 -1.92257,6.53674c0,2.88385 0.57677,4.99868 1.73031,6.34448c1.15354,1.53806 2.88385,2.11483 4.99868,2.11483c1.15354,0 2.30708,-0.19226 3.26837,-0.38451l0,-4.61417l-5.3832,0l0,-6.15222z" class="brand-primary" fill="#A0C7E5"/>
   <path stroke="null" id="svg_5" d="m116.7,15.38056c0,4.99868 -1.15354,8.84382 -3.65288,11.53542c-2.49934,2.6916 -6.15222,3.84514 -10.76639,3.84514c-4.61417,0 -8.26705,-1.3458 -10.76639,-4.0374c-2.49934,-2.6916 -3.84514,-6.53674 -3.84514,-11.53542c0,-4.99868 1.15354,-8.84382 3.65288,-11.34316c2.49934,-2.6916 6.15222,-3.84514 10.76639,-3.84514c4.80642,0 8.26705,1.3458 10.76639,3.84514c2.49934,2.6916 3.84514,6.53674 3.84514,11.53542zm-20.5715,0c0,5.76771 1.92257,8.65156 5.95997,8.65156c2.11483,0 3.65288,-0.76903 4.61417,-2.11483s1.53806,-3.65288 1.53806,-6.53674c0,-3.07611 -0.57677,-5.19094 -1.53806,-6.53674c-0.96128,-1.3458 -2.49934,-2.11483 -4.42191,-2.11483c-4.22965,-0.19226 -6.15222,2.88385 -6.15222,8.65156z" class="brand-primary" fill="#A0C7E5"/>
  </g>
 </g>
</svg>