<?xml version="1.0" encoding="utf-8"?>
<!-- Generator: Adobe Illustrator 18.1.1, SVG Export Plug-In . SVG Version: 6.00 Build 0)  -->
<svg version="1.1" id="Layer_1" xmlns="http://www.w3.org/2000/svg" xmlns:xlink="http://www.w3.org/1999/xlink" x="0px" y="0px"
	 viewBox="0 0 576 512" enable-background="new 0 0 576 512" xml:space="preserve">
<g>
	<path fill-rule="evenodd" clip-rule="evenodd" fill="#F5F2ED" d="M8,72h368v112H8V72z"/>
</g>
<path fill-rule="evenodd" clip-rule="evenodd" fill="#A0C7E5" class="brand-primary" d="M0,32h576v32H0V32z"/>
<path fill-rule="evenodd" clip-rule="evenodd" fill="#FFFFFF" d="M8,40h560v16H8V40z"/>
<path fill-rule="evenodd" clip-rule="evenodd" fill="#A0C7E5" class="brand-primary" d="M132,8h24c2.2,0,4,1.8,4,4v8c0,2.2-1.8,4-4,4h-24c-2.2,0-4-1.8-4-4
	v-8C128,9.8,129.8,8,132,8z"/>
<path fill-rule="evenodd" clip-rule="evenodd" fill="#A0C7E5" class="brand-primary" d="M172,8h24c2.2,0,4,1.8,4,4v8c0,2.2-1.8,4-4,4h-24c-2.2,0-4-1.8-4-4
	v-8C168,9.8,169.8,8,172,8z"/>
<path fill-rule="evenodd" clip-rule="evenodd" fill="#A0C7E5" class="brand-primary" d="M212,8h24c2.2,0,4,1.8,4,4v8c0,2.2-1.8,4-4,4h-24c-2.2,0-4-1.8-4-4
	v-8C208,9.8,209.8,8,212,8z"/>
<path fill-rule="evenodd" clip-rule="evenodd" fill="#E87700" class="brand-secondary" d="M540,16h24c2.2,0,4,1.8,4,4c0,2.2-1.8,4-4,4h-24c-2.2,0-4-1.8-4-4
	C536,17.8,537.8,16,540,16z"/>
<path fill-rule="evenodd" clip-rule="evenodd" fill="#E87700" class="brand-secondary" d="M484,16h40c2.2,0,4,1.8,4,4c0,2.2-1.8,4-4,4h-40c-2.2,0-4-1.8-4-4
	C480,17.8,481.8,16,484,16z"/>
<path fill-rule="evenodd" clip-rule="evenodd" fill="#E87700" class="brand-secondary" d="M8,40h56v16H8V40z"/>
<path fill-rule="evenodd" clip-rule="evenodd" fill="#E87700" class="brand-secondary" d="M552,40h16v16h-16V40z"/>
<path fill-rule="evenodd" clip-rule="evenodd" fill="#E87700" class="brand-secondary" d="M356,164h20v20h-20V164z"/>
<path fill-rule="evenodd" clip-rule="evenodd" fill="#9E9D99" d="M304,168h48v4h-48V168z"/>
<path fill-rule="evenodd" clip-rule="evenodd" fill="#9E9D99" d="M124,168h52v4h-52V168z"/>
<path fill-rule="evenodd" clip-rule="evenodd" fill="#9E9D99" d="M220,168h80v4h-80V168z"/>
<path fill-rule="evenodd" clip-rule="evenodd" fill="#9E9D99" d="M180,168h16v4h-16V168z"/>
<path fill-rule="evenodd" clip-rule="evenodd" fill="#9E9D99" d="M200,168h16v4h-16V168z"/>
<path fill-rule="evenodd" clip-rule="evenodd" fill="#9E9D99" d="M300,176h52v4h-52V176z"/>
<path fill-rule="evenodd" clip-rule="evenodd" fill="#9E9D99" d="M184,176h72v4h-72V176z"/>
<path fill-rule="evenodd" clip-rule="evenodd" fill="#9E9D99" d="M284,176h12v4h-12V176z"/>
<path fill-rule="evenodd" clip-rule="evenodd" fill="#9E9D99" d="M260,176h20v4h-20V176z"/>
<path fill-rule="evenodd" clip-rule="evenodd" fill="#9E9D99" d="M164,176h16v4h-16V176z"/>
<path fill-rule="evenodd" clip-rule="evenodd" fill="#9E9D99" d="M8,204h40v8H8V204z"/>
<path fill-rule="evenodd" clip-rule="evenodd" fill="#9E9D99" d="M52,204h20v8H52V204z"/>
<path fill-rule="evenodd" clip-rule="evenodd" fill="#9E9D99" d="M76,204h52v8H76V204z"/>
<path fill-rule="evenodd" clip-rule="evenodd" fill="#F5F2ED" d="M8,220h28v28H8V220z"/>
<path fill-rule="evenodd" clip-rule="evenodd" fill="#9E9D99" d="M44,228h48v4H44V228z"/>
<path fill-rule="evenodd" clip-rule="evenodd" fill="#9E9D99" d="M220,228h48v4h-48V228z"/>
<path fill-rule="evenodd" clip-rule="evenodd" fill="#9E9D99" d="M144,236h80v4h-80V236z"/>
<path fill-rule="evenodd" clip-rule="evenodd" fill="#9E9D99" d="M200,228h16v4h-16V228z"/>
<path fill-rule="evenodd" clip-rule="evenodd" fill="#9E9D99" d="M180,228h16v4h-16V228z"/>
<path fill-rule="evenodd" clip-rule="evenodd" fill="#9E9D99" d="M44,220h52v4H44V220z"/>
<path fill-rule="evenodd" clip-rule="evenodd" fill="#9E9D99" d="M140,220h72v4h-72V220z"/>
<path fill-rule="evenodd" clip-rule="evenodd" fill="#9E9D99" d="M100,220h12v4h-12V220z"/>
<path fill-rule="evenodd" clip-rule="evenodd" fill="#9E9D99" d="M116,220h20v4h-20V220z"/>
<path fill-rule="evenodd" clip-rule="evenodd" fill="#9E9D99" d="M216,220h16v4h-16V220z"/>
<path fill-rule="evenodd" clip-rule="evenodd" fill="#9E9D99" d="M236,220h20v4h-20V220z"/>
<path fill-rule="evenodd" clip-rule="evenodd" fill="#9E9D99" d="M68,236h52v4H68V236z"/>
<path fill-rule="evenodd" clip-rule="evenodd" fill="#9E9D99" d="M44,236h20v4H44V236z"/>
<path fill-rule="evenodd" clip-rule="evenodd" fill="#9E9D99" d="M124,236h16v4h-16V236z"/>
<path fill-rule="evenodd" clip-rule="evenodd" fill="#9E9D99" d="M96,228h80v4H96V228z"/>
<path fill-rule="evenodd" clip-rule="evenodd" fill="#9E9D99" d="M228,236h12v4h-12V236z"/>
<path fill-rule="evenodd" clip-rule="evenodd" fill="#9E9D99" d="M44,244h28v4H44V244z"/>
<path fill-rule="evenodd" clip-rule="evenodd" fill="#9E9D99" d="M76,244h48v4H76V244z"/>
<path fill-rule="evenodd" clip-rule="evenodd" fill="#A0C7E5" class="brand-primary" d="M128,244h28v4h-28V244z"/>
<path fill-rule="evenodd" clip-rule="evenodd" fill="#9E9D99" d="M8,264h29v8H8V264z"/>
<path fill-rule="evenodd" clip-rule="evenodd" fill="#9E9D99" d="M41,264h41v8H41V264z"/>
<path fill-rule="evenodd" clip-rule="evenodd" fill="#9E9D99" d="M86,264h62v8H86V264z"/>
<path fill-rule="evenodd" clip-rule="evenodd" fill="#9E9D99" d="M8,344h29v8H8V344z"/>
<path fill-rule="evenodd" clip-rule="evenodd" fill="#9E9D99" d="M41,344h41v8H41V344z"/>
<path fill-rule="evenodd" clip-rule="evenodd" fill="#F5F2ED" d="M8,280h28v28H8V280z"/>
<path fill-rule="evenodd" clip-rule="evenodd" fill="#9E9D99" d="M44,288h68v4H44V288z"/>
<path fill-rule="evenodd" clip-rule="evenodd" fill="#9E9D99" d="M209,288h59v4h-59V288z"/>
<path fill-rule="evenodd" clip-rule="evenodd" fill="#9E9D99" d="M184,296h50v4h-50V296z"/>
<path fill-rule="evenodd" clip-rule="evenodd" fill="#9E9D99" d="M200,288h5v4h-5V288z"/>
<path fill-rule="evenodd" clip-rule="evenodd" fill="#9E9D99" d="M159,288h37v4h-37V288z"/>
<path fill-rule="evenodd" clip-rule="evenodd" fill="#9E9D99" d="M44,280h41v4H44V280z"/>
<path fill-rule="evenodd" clip-rule="evenodd" fill="#9E9D99" d="M150,280h31v4h-31V280z"/>
<path fill-rule="evenodd" clip-rule="evenodd" fill="#9E9D99" d="M89,280h23v4H89V280z"/>
<path fill-rule="evenodd" clip-rule="evenodd" fill="#9E9D99" d="M116,280h30v4h-30V280z"/>
<path fill-rule="evenodd" clip-rule="evenodd" fill="#9E9D99" d="M185,280h57v4h-57V280z"/>
<path fill-rule="evenodd" clip-rule="evenodd" fill="#9E9D99" d="M246,280h10v4h-10V280z"/>
<path fill-rule="evenodd" clip-rule="evenodd" fill="#9E9D99" d="M68,296h52v4H68V296z"/>
<path fill-rule="evenodd" clip-rule="evenodd" fill="#9E9D99" d="M44,296h20v4H44V296z"/>
<path fill-rule="evenodd" clip-rule="evenodd" fill="#9E9D99" d="M124,296h56v4h-56V296z"/>
<path fill-rule="evenodd" clip-rule="evenodd" fill="#9E9D99" d="M116,288h39v4h-39V288z"/>
<path fill-rule="evenodd" clip-rule="evenodd" fill="#9E9D99" d="M238,296h22v4h-22V296z"/>
<path fill-rule="evenodd" clip-rule="evenodd" fill="#9E9D99" d="M44,304h48v4H44V304z"/>
<path fill-rule="evenodd" clip-rule="evenodd" fill="#9E9D99" d="M96,304h48v4H96V304z"/>
<path fill-rule="evenodd" clip-rule="evenodd" fill="#A0C7E5" class="brand-primary" d="M148,304h38v4h-38V304z"/>
<g>
	<path fill="#A0C7E5" class="brand-primary" d="M11,23.8V8.2h4.2v12.2h6v3.4H11z"/>
	<path fill="#A0C7E5" class="brand-primary" d="M38.2,16c0,2.6-0.6,4.6-1.9,6c-1.3,1.4-3.2,2-5.6,2c-2.4,0-4.3-0.7-5.6-2.1c-1.3-1.4-2-3.4-2-6
		c0-2.6,0.6-4.6,1.9-5.9s3.2-2,5.6-2c2.5,0,4.3,0.7,5.6,2C37.6,11.4,38.2,13.4,38.2,16z M27.5,16c0,3,1,4.5,3.1,4.5
		c1.1,0,1.9-0.4,2.4-1.1s0.8-1.9,0.8-3.4c0-1.6-0.3-2.7-0.8-3.4c-0.5-0.7-1.3-1.1-2.3-1.1C28.6,11.4,27.5,13,27.5,16z"/>
	<path fill="#A0C7E5" class="brand-primary" d="M47.3,14.7H54v8.4c-1.8,0.6-3.8,0.9-6,0.9c-2.4,0-4.2-0.7-5.6-2.1c-1.3-1.4-2-3.4-2-5.9
		c0-2.5,0.7-4.5,2.1-5.9C44,8.7,46,8,48.6,8c1,0,1.9,0.1,2.8,0.3S53,8.7,53.7,9l-1.3,3.3c-1.1-0.6-2.3-0.8-3.7-0.8
		c-1.2,0-2.2,0.4-2.8,1.2c-0.7,0.8-1,1.9-1,3.4c0,1.5,0.3,2.6,0.9,3.3c0.6,0.8,1.5,1.1,2.6,1.1c0.6,0,1.2-0.1,1.7-0.2v-2.4h-2.8
		V14.7z"/>
	<path fill="#A0C7E5" class="brand-primary" d="M71.7,16c0,2.6-0.6,4.6-1.9,6c-1.3,1.4-3.2,2-5.6,2c-2.4,0-4.3-0.7-5.6-2.1c-1.3-1.4-2-3.4-2-6
		c0-2.6,0.6-4.6,1.9-5.9c1.3-1.4,3.2-2,5.6-2c2.5,0,4.3,0.7,5.6,2C71,11.4,71.7,13.4,71.7,16z M61,16c0,3,1,4.5,3.1,4.5
		c1.1,0,1.9-0.4,2.4-1.1s0.8-1.9,0.8-3.4c0-1.6-0.3-2.7-0.8-3.4c-0.5-0.7-1.3-1.1-2.3-1.1C62,11.4,61,13,61,16z"/>
</g>
<g>
	<path fill-rule="evenodd" clip-rule="evenodd" fill="#F5F2ED" d="M392,72h176v72H392V72z"/>
	<path fill-rule="evenodd" clip-rule="evenodd" fill="#9E9D99" d="M392,152h40v8h-40V152z"/>
	<path fill-rule="evenodd" clip-rule="evenodd" fill="#9E9D99" d="M436,152h20v8h-20V152z"/>
	<path fill-rule="evenodd" clip-rule="evenodd" fill="#9E9D99" d="M460,152h52v8h-52V152z"/>
	<path fill-rule="evenodd" clip-rule="evenodd" fill="#9E9D99" d="M392,176h48v4h-48V176z"/>
	<path fill-rule="evenodd" clip-rule="evenodd" fill="#9E9D99" d="M492,184h76v4h-76V184z"/>
	<path fill-rule="evenodd" clip-rule="evenodd" fill="#9E9D99" d="M548,176h16v4h-16V176z"/>
	<path fill-rule="evenodd" clip-rule="evenodd" fill="#9E9D99" d="M528,176h16v4h-16V176z"/>
	<path fill-rule="evenodd" clip-rule="evenodd" fill="#9E9D99" d="M392,168h52v4h-52V168z"/>
	<path fill-rule="evenodd" clip-rule="evenodd" fill="#9E9D99" d="M488,168h72v4h-72V168z"/>
	<path fill-rule="evenodd" clip-rule="evenodd" fill="#9E9D99" d="M448,168h12v4h-12V168z"/>
	<path fill-rule="evenodd" clip-rule="evenodd" fill="#9E9D99" d="M464,168h20v4h-20V168z"/>
	<path fill-rule="evenodd" clip-rule="evenodd" fill="#A0C7E5" class="brand-primary" d="M416,184h52v4h-52V184z"/>
	<path fill-rule="evenodd" clip-rule="evenodd" fill="#9E9D99" d="M392,184h20v4h-20V184z"/>
	<path fill-rule="evenodd" clip-rule="evenodd" fill="#9E9D99" d="M472,184h16v4h-16V184z"/>
	<path fill-rule="evenodd" clip-rule="evenodd" fill="#9E9D99" d="M444,176h80v4h-80V176z"/>
	<path fill-rule="evenodd" clip-rule="evenodd" fill="#9E9D99" d="M392,192h28v4h-28V192z"/>
	<path fill-rule="evenodd" clip-rule="evenodd" fill="#9E9D99" d="M424,192h48v4h-48V192z"/>
	<path fill-rule="evenodd" clip-rule="evenodd" fill="#E87700" class="brand-secondary" d="M544,200h20c2.2,0,4,1.8,4,4c0,2.2-1.8,4-4,4h-20
		c-2.2,0-4-1.8-4-4C540,201.8,541.8,200,544,200z"/>
	<rect x="392" y="217" fill-rule="evenodd" clip-rule="evenodd" fill="#F5F2ED" width="176" height="1"/>
</g>
<g>
	<path fill-rule="evenodd" clip-rule="evenodd" fill="#F5F2ED" d="M392,232h176v136H392V232z"/>
	<path fill-rule="evenodd" clip-rule="evenodd" fill="#9E9D99" d="M402,332h40v8h-40V332z"/>
	<path fill-rule="evenodd" clip-rule="evenodd" fill="#9E9D99" d="M446,332h20v8h-20V332z"/>
	<path fill-rule="evenodd" clip-rule="evenodd" fill="#9E9D99" d="M470,332h52v8h-52V332z"/>
	<path fill-rule="evenodd" clip-rule="evenodd" fill="#E87700" class="brand-secondary" d="M498,344h20c2.2,0,4,1.8,4,4s-1.8,4-4,4h-20c-2.2,0-4-1.8-4-4
		S495.8,344,498,344z"/>
	<rect x="392" y="377" fill-rule="evenodd" clip-rule="evenodd" fill="#F5F2ED" width="176" height="1"/>
	<path fill-rule="evenodd" clip-rule="evenodd" fill="#9E9D99" d="M402,344h20v8h-20V344z"/>
	<path fill-rule="evenodd" clip-rule="evenodd" fill="#9E9D99" d="M426,344h52v8h-52V344z"/>
</g>
<g>
	<path fill-rule="evenodd" clip-rule="evenodd" fill="#A0C7E5" class="brand-primary" d="M402,409h40v8h-40V409z"/>
	<path fill-rule="evenodd" clip-rule="evenodd" fill="#A0C7E5" class="brand-primary" d="M446,409h20v8h-20V409z"/>
	<rect x="392" y="474" fill-rule="evenodd" clip-rule="evenodd" fill="#F5F2ED" width="176" height="1"/>
	<path fill-rule="evenodd" clip-rule="evenodd" fill="#9E9D99" d="M392,392h40v8h-40V392z"/>
	<path fill-rule="evenodd" clip-rule="evenodd" fill="#9E9D99" d="M436,392h20v8h-20V392z"/>
	<path fill-rule="evenodd" clip-rule="evenodd" fill="#9E9D99" d="M460,392h52v8h-52V392z"/>
	<circle fill-rule="evenodd" clip-rule="evenodd" fill="#A0C7E5" class="brand-primary" cx="396" cy="413" r="3"/>
	<path fill-rule="evenodd" clip-rule="evenodd" fill="#A0C7E5" class="brand-primary" d="M402,425h29v8h-29V425z"/>
	<path fill-rule="evenodd" clip-rule="evenodd" fill="#A0C7E5" class="brand-primary" d="M435,425h20v8h-20V425z"/>
	<circle fill-rule="evenodd" clip-rule="evenodd" fill="#A0C7E5" class="brand-primary" cx="396" cy="429" r="3"/>
	<path fill-rule="evenodd" clip-rule="evenodd" fill="#A0C7E5" class="brand-primary" d="M402,441h50v8h-50V441z"/>
	<path fill-rule="evenodd" clip-rule="evenodd" fill="#A0C7E5" class="brand-primary" d="M456,441h30v8h-30V441z"/>
	<circle fill-rule="evenodd" clip-rule="evenodd" fill="#A0C7E5" class="brand-primary" cx="396" cy="445" r="3"/>
	<path fill-rule="evenodd" clip-rule="evenodd" fill="#A0C7E5" class="brand-primary" d="M402,457h19v8h-19V457z"/>
	<path fill-rule="evenodd" clip-rule="evenodd" fill="#A0C7E5" class="brand-primary" d="M425,457h50v8h-50V457z"/>
	<circle fill-rule="evenodd" clip-rule="evenodd" fill="#A0C7E5" class="brand-primary" cx="396" cy="461" r="3"/>
</g>
<rect x="8" y="327" fill-rule="evenodd" clip-rule="evenodd" fill="#F5F2ED" width="368" height="1"/>
<path fill-rule="evenodd" clip-rule="evenodd" fill="#A0C7E5" class="brand-primary" d="M24,368h86v6H24V368z"/>
<path fill-rule="evenodd" clip-rule="evenodd" fill="#A0C7E5" class="brand-primary" d="M24,380h97v6H24V380z"/>
<path fill-rule="evenodd" clip-rule="evenodd" fill="#A0C7E5" class="brand-primary" d="M24,392h47v6H24V392z"/>
<path fill-rule="evenodd" clip-rule="evenodd" fill="#A0C7E5" class="brand-primary" d="M24,404h78v6H24V404z"/>
<path fill-rule="evenodd" clip-rule="evenodd" fill="#A0C7E5" class="brand-primary" d="M24,416h88v6H24V416z"/>
<path fill-rule="evenodd" clip-rule="evenodd" fill="#A0C7E5" class="brand-primary" d="M24,428h67v6H24V428z"/>
<path fill-rule="evenodd" clip-rule="evenodd" fill="#A0C7E5" class="brand-primary" d="M208,434h86v-6h-86V434z"/>
<path fill-rule="evenodd" clip-rule="evenodd" fill="#A0C7E5" class="brand-primary" d="M208,422h97v-6h-97V422z"/>
<path fill-rule="evenodd" clip-rule="evenodd" fill="#A0C7E5" class="brand-primary" d="M208,410h47v-6h-47V410z"/>
<path fill-rule="evenodd" clip-rule="evenodd" fill="#A0C7E5" class="brand-primary" d="M208,398h78v-6h-78V398z"/>
<path fill-rule="evenodd" clip-rule="evenodd" fill="#A0C7E5" class="brand-primary" d="M208,386h88v-6h-88V386z"/>
<path fill-rule="evenodd" clip-rule="evenodd" fill="#A0C7E5" class="brand-primary" d="M208,374h67v-6h-67V374z"/>
</svg>
