<svg xmlns="http://www.w3.org/2000/svg" xmlns:xlink="http://www.w3.org/1999/xlink" version="1.1" x="0px" y="0px" viewBox="0 0 576 576" xml:space="preserve">
  <rect x="8" y="72" width="368" height="112" fill="#F5F2ED"/>
  <rect x="392" y="72" width="176" height="72" fill="#F5F2ED"/>
  <rect x="392" y="217" width="176" height="1" fill="#F5F2ED"/>
  <rect x="392" y="232" width="176" height="136" fill="#F5F2ED"/>
  <rect x="392" y="377" width="176" height="1" fill="#F5F2ED"/>
  <rect x="392" y="474" width="176" height="1" fill="#F5F2ED"/>
  <rect x="8" y="327" width="368" height="1" fill="#F5F2ED"/>
  <rect x="8" y="260" width="28" height="48" fill="#F5F2ED"/>
  <rect x="8" y="200" width="28" height="48" fill="#F5F2ED"/>
  <rect x="192" y="260" width="28" height="48" fill="#F5F2ED"/>
  <rect x="192" y="200" width="28" height="48" fill="#F5F2ED"/>
  <rect y="544" width="576" height="2" fill="#F5F2ED"/>
  <path d="M0 32h576v32H0V32z" fill="#A0C7E5"/>
  <path d="M0 490h576v2H0V490z" fill="#A0C7E5"/>
  <path d="M8 40h560v16H8V40z" fill="#FFF"/>
  <path d="M132 8h24c2.2 0 4 1.8 4 4v8c0 2.2-1.8 4-4 4h-24c-2.2 0-4-1.8-4-4v-8C128 9.8 129.8 8 132 8z" fill="#A0C7E5"/>
  <path d="M172 8h24c2.2 0 4 1.8 4 4v8c0 2.2-1.8 4-4 4h-24c-2.2 0-4-1.8-4-4v-8C168 9.8 169.8 8 172 8z" fill="#A0C7E5"/>
  <path d="M212 8h24c2.2 0 4 1.8 4 4v8c0 2.2-1.8 4-4 4h-24c-2.2 0-4-1.8-4-4v-8C208 9.8 209.8 8 212 8z" fill="#A0C7E5"/>
  <path d="M540 16h24c2.2 0 4 1.8 4 4s-1.8 4-4 4h-24c-2.2 0-4-1.8-4-4S537.8 16 540 16z" fill="#E87700"/>
  <path d="M484 16h40c2.2 0 4 1.8 4 4s-1.8 4-4 4h-40c-2.2 0-4-1.8-4-4S481.8 16 484 16z" fill="#E87700"/>
  <path d="M8 40h56v16H8V40z" fill="#E87700"/>
  <path d="M552 40h16v16h-16V40z" fill="#E87700"/>
  <path d="M356 164h20v20h-20V164z" fill="#E87700"/>
  <path d="M416 184h52v4h-52V184z" fill="#A0C7E5"/>
  <path d="M544 200h20c2.2 0 4 1.8 4 4s-1.8 4-4 4h-20c-2.2 0-4-1.8-4-4S541.8 200 544 200z" fill="#E87700"/>
  <path d="M498 344h20c2.2 0 4 1.8 4 4s-1.8 4-4 4h-20c-2.2 0-4-1.8-4-4S495.8 344 498 344z" fill="#E87700"/>
  <path d="M402 409h40v8h-40V409z" fill="#A0C7E5"/>
  <path d="M446 409h20v8h-20V409z" fill="#A0C7E5"/>
  <circle cx="396" cy="413" r="3" fill="#A0C7E5"/>
  <path d="M402 425h29v8h-29V425z" fill="#A0C7E5"/>
  <path d="M435 425h20v8h-20V425z" fill="#A0C7E5"/>
  <circle cx="396" cy="429" r="3" fill="#A0C7E5"/>
  <path d="M402 441h50v8h-50V441z" fill="#A0C7E5"/>
  <path d="M456 441h30v8h-30V441z" fill="#A0C7E5"/>
  <circle cx="396" cy="445" r="3" fill="#A0C7E5"/>
  <path d="M402 457h19v8h-19V457z" fill="#A0C7E5"/>
  <path d="M425 457h50v8h-50V457z" fill="#A0C7E5"/>
  <circle cx="396" cy="461" r="3" fill="#A0C7E5"/>
  <path d="M24 368h86v6H24V368z" fill="#A0C7E5"/>
  <path d="M24 380h97v6H24V380z" fill="#A0C7E5"/>
  <path d="M24 392h47v6H24V392z" fill="#A0C7E5"/>
  <path d="M24 404h78v6H24V404z" fill="#A0C7E5"/>
  <path d="M24 416h88v6H24V416z" fill="#A0C7E5"/>
  <path d="M24 428h67v6H24V428z" fill="#A0C7E5"/>
  <path d="M208 434h86v-6h-86V434z" fill="#A0C7E5"/>
  <path d="M208 422h97v-6h-97V422z" fill="#A0C7E5"/>
  <path d="M208 410h47v-6h-47V410z" fill="#A0C7E5"/>
  <path d="M208 398h78v-6h-78V398z" fill="#A0C7E5"/>
  <path d="M208 386h88v-6h-88V386z" fill="#A0C7E5"/>
  <path d="M208 374h67v-6h-67V374z" fill="#A0C7E5"/>
  <path d="M44 280h41v4H44V280z" fill="#A0C7E5"/>
  <path d="M89 280h23v4H89V280z" fill="#A0C7E5"/>
  <path d="M116 280h30v4h-30V280z" fill="#A0C7E5"/>
  <path d="M44 304h48v4H44V304z" fill="#A0C7E5"/>
  <path d="M96 304h48v4H96V304z" fill="#A0C7E5"/>
  <path d="M44 220h41v4H44V220z" fill="#A0C7E5"/>
  <path d="M89 220h23v4H89V220z" fill="#A0C7E5"/>
  <path d="M116 220h30v4h-30V220z" fill="#A0C7E5"/>
  <path d="M44 244h48v4H44V244z" fill="#A0C7E5"/>
  <path d="M96 244h48v4H96V244z" fill="#A0C7E5"/>
  <path d="M228 280h41v4h-41V280z" fill="#A0C7E5"/>
  <path d="M273 280h23v4h-23V280z" fill="#A0C7E5"/>
  <path d="M300 280h30v4h-30V280z" fill="#A0C7E5"/>
  <path d="M228 304h48v4h-48V304z" fill="#A0C7E5"/>
  <path d="M280 304h48v4h-48V304z" fill="#A0C7E5"/>
  <path d="M228 220h41v4h-41V220z" fill="#A0C7E5"/>
  <path d="M273 220h23v4h-23V220z" fill="#A0C7E5"/>
  <path d="M300 220h30v4h-30V220z" fill="#A0C7E5"/>
  <path d="M228 244h48v4h-48V244z" fill="#A0C7E5"/>
  <path d="M280 244h48v4h-48V244z" fill="#A0C7E5"/>
  <path d="M448 534h86v-6h-86V534z" fill="#A0C7E5"/>
  <path d="M448 522h97v-6h-97V522z" fill="#A0C7E5"/>
  <path d="M448 510h47v-6h-47V510z" fill="#A0C7E5"/>
  <path d="M320 534h78v-6h-78V534z" fill="#A0C7E5"/>
  <path d="M320 522h88v-6h-88V522z" fill="#A0C7E5"/>
  <path d="M320 510h67v-6h-67V510z" fill="#A0C7E5"/>
  <rect x="304" y="168" width="48" height="4" fill="#9E9D99"/>
  <rect x="124" y="168" width="52" height="4" fill="#9E9D99"/>
  <rect x="220" y="168" width="80" height="4" fill="#9E9D99"/>
  <rect x="180" y="168" width="16" height="4" fill="#9E9D99"/>
  <rect x="200" y="168" width="16" height="4" fill="#9E9D99"/>
  <rect x="300" y="176" width="52" height="4" fill="#9E9D99"/>
  <rect x="184" y="176" width="72" height="4" fill="#9E9D99"/>
  <rect x="284" y="176" width="12" height="4" fill="#9E9D99"/>
  <rect x="260" y="176" width="20" height="4" fill="#9E9D99"/>
  <rect x="164" y="176" width="16" height="4" fill="#9E9D99"/>
  <rect x="392" y="176" width="48" height="4" fill="#9E9D99"/>
  <rect x="492" y="184" width="76" height="4" fill="#9E9D99"/>
  <rect x="548" y="176" width="16" height="4" fill="#9E9D99"/>
  <rect x="528" y="176" width="16" height="4" fill="#9E9D99"/>
  <rect x="392" y="168" width="52" height="4" fill="#9E9D99"/>
  <rect x="488" y="168" width="72" height="4" fill="#9E9D99"/>
  <rect x="448" y="168" width="12" height="4" fill="#9E9D99"/>
  <rect x="464" y="168" width="20" height="4" fill="#9E9D99"/>
  <rect x="392" y="184" width="20" height="4" fill="#9E9D99"/>
  <rect x="472" y="184" width="16" height="4" fill="#9E9D99"/>
  <rect x="444" y="176" width="80" height="4" fill="#9E9D99"/>
  <rect x="392" y="192" width="28" height="4" fill="#9E9D99"/>
  <rect x="424" y="192" width="48" height="4" fill="#9E9D99"/>
  <rect x="402" y="332" width="40" height="8" fill="#9E9D99"/>
  <rect x="446" y="332" width="20" height="8" fill="#9E9D99"/>
  <rect x="470" y="332" width="52" height="8" fill="#9E9D99"/>
  <rect x="402" y="344" width="20" height="8" fill="#9E9D99"/>
  <rect x="426" y="344" width="52" height="8" fill="#9E9D99"/>
  <polygon points="11.422 351.711 13.844 351.711 13.844 342.305 16.945 342.305 16.945 340.289 8.32 340.289 8.32 342.305 11.422 342.305 " fill="#9E9D99"/>
  <path d="M19.977 351.316c0.641 0.367 1.38 0.551 2.219 0.551 1.338 0 2.383-0.401 3.133-1.203s1.125-1.914 1.125-3.336c0-0.917-0.172-1.716-0.516-2.398s-0.836-1.206-1.477-1.57 -1.38-0.547-2.219-0.547c-1.349 0-2.396 0.396-3.141 1.188 -0.745 0.792-1.117 1.901-1.117 3.328 0 0.917 0.172 1.719 0.516 2.406S19.336 350.949 19.977 351.316zM20.836 345.379c0.281-0.43 0.739-0.645 1.375-0.645 0.641 0 1.102 0.216 1.383 0.648s0.422 1.081 0.422 1.945c0 0.87-0.14 1.524-0.418 1.965 -0.279 0.44-0.736 0.66-1.371 0.66 -0.641 0-1.103-0.222-1.387-0.664 -0.284-0.442-0.426-1.097-0.426-1.961C20.414 346.458 20.555 345.809 20.836 345.379z" fill="#9E9D99"/>
  <path d="M30.805 352.016c0-0.114-0.042-0.536-0.125-1.266h0.125c0.583 0.745 1.388 1.117 2.414 1.117 0.682 0 1.276-0.18 1.781-0.539 0.505-0.359 0.895-0.883 1.168-1.57s0.41-1.497 0.41-2.43c0-1.417-0.292-2.523-0.875-3.32 -0.583-0.797-1.391-1.195-2.422-1.195 -1.094 0-1.919 0.433-2.477 1.297h-0.109l-0.336-1.133h-1.938v12.578h2.383V352.016zM30.805 347.055c0.01-0.833 0.151-1.431 0.422-1.793 0.271-0.362 0.7-0.543 1.289-0.543 0.563 0 0.975 0.215 1.238 0.645 0.263 0.43 0.395 1.074 0.395 1.934 0 1.761-0.534 2.641-1.602 2.641 -0.604 0-1.046-0.203-1.324-0.609 -0.279-0.406-0.418-1.078-0.418-2.016V347.055z" fill="#9E9D99"/>
  <path d="M39.742 341.891c0.432 0 0.756-0.103 0.973-0.309 0.216-0.206 0.324-0.493 0.324-0.863 0-0.776-0.433-1.164-1.297-1.164 -0.865 0-1.297 0.388-1.297 1.164C38.445 341.5 38.877 341.891 39.742 341.891z" fill="#9E9D99"/>
  <rect x="38.547" y="342.977" width="2.383" height="8.734" fill="#9E9D99"/>
  <path d="M47.188 344.734c0.323 0 0.646 0.048 0.969 0.145 0.323 0.097 0.672 0.22 1.047 0.371l0.703-1.844c-0.802-0.396-1.708-0.594-2.719-0.594 -1.38 0-2.44 0.392-3.18 1.176 -0.74 0.784-1.109 1.918-1.109 3.402 0 2.984 1.359 4.477 4.078 4.477 0.599 0 1.095-0.047 1.488-0.141 0.393-0.094 0.782-0.263 1.168-0.508v-2.039c-0.391 0.261-0.781 0.452-1.172 0.574s-0.815 0.184-1.273 0.184c-1.24 0-1.859-0.854-1.859-2.563C45.328 345.614 45.948 344.734 47.188 344.734z" fill="#9E9D99"/>
  <path d="M54.547 344.578c0.396 0 0.784 0.06 1.164 0.18 0.38 0.12 0.789 0.273 1.227 0.461l0.719-1.719c-0.995-0.458-2.019-0.688-3.07-0.688 -1.104 0-1.957 0.212-2.559 0.637s-0.902 1.024-0.902 1.801c0 0.453 0.071 0.835 0.215 1.145 0.143 0.31 0.372 0.585 0.688 0.824 0.315 0.239 0.809 0.5 1.48 0.781 0.469 0.198 0.844 0.371 1.125 0.52s0.479 0.281 0.594 0.398c0.114 0.117 0.172 0.27 0.172 0.457 0 0.5-0.433 0.75-1.297 0.75 -0.422 0-0.91-0.07-1.465-0.211s-1.054-0.315-1.496-0.523v1.969c0.391 0.167 0.81 0.293 1.258 0.379 0.448 0.086 0.989 0.129 1.625 0.129 1.239 0 2.17-0.234 2.793-0.703 0.622-0.469 0.934-1.151 0.934-2.047 0-0.433-0.076-0.805-0.227-1.117 -0.151-0.313-0.386-0.589-0.703-0.828 -0.318-0.239-0.818-0.497-1.5-0.773 -0.766-0.308-1.262-0.539-1.488-0.695s-0.34-0.341-0.34-0.555C53.492 344.769 53.844 344.578 54.547 344.578z" fill="#9E9D99"/>
  <rect x="44" y="288" width="68" height="4" fill="#9E9D99"/>
  <rect x="116" y="288" width="39" height="4" fill="#9E9D99"/>
  <path d="M48.133 274.023c0.609-0.698 0.914-1.714 0.914-3.047v-10.688h-2.422v10.703c0 0.703-0.115 1.22-0.344 1.551 -0.229 0.331-0.609 0.496-1.141 0.496 -0.344 0-0.724-0.052-1.141-0.156v2.016c0.406 0.114 0.883 0.172 1.43 0.172C46.622 275.07 47.523 274.722 48.133 274.023z" fill="#9E9D99"/>
  <path d="M57.68 263.359c-0.641-0.364-1.38-0.547-2.219-0.547 -1.349 0-2.396 0.396-3.141 1.188 -0.745 0.792-1.117 1.901-1.117 3.328 0 0.917 0.172 1.719 0.516 2.406s0.836 1.215 1.477 1.582 1.38 0.551 2.219 0.551c1.338 0 2.383-0.401 3.133-1.203s1.125-1.914 1.125-3.336c0-0.917-0.172-1.716-0.516-2.398S58.32 263.724 57.68 263.359zM56.816 269.293c-0.279 0.44-0.736 0.66-1.371 0.66 -0.641 0-1.103-0.222-1.387-0.664 -0.284-0.442-0.426-1.097-0.426-1.961 0-0.87 0.141-1.52 0.422-1.949s0.739-0.645 1.375-0.645c0.641 0 1.102 0.216 1.383 0.648s0.422 1.081 0.422 1.945C57.234 268.198 57.095 268.853 56.816 269.293z" fill="#9E9D99"/>
  <path d="M61.594 262.977v5.695c0 1.031 0.26 1.821 0.781 2.371 0.521 0.55 1.294 0.824 2.32 0.824 0.599 0 1.133-0.11 1.602-0.332s0.831-0.535 1.086-0.941h0.125l0.32 1.117h1.828v-8.734h-2.383v4.109c0 1.031-0.148 1.77-0.445 2.215s-0.779 0.668-1.445 0.668c-0.49 0-0.847-0.157-1.07-0.473 -0.224-0.315-0.336-0.788-0.336-1.418v-5.102H61.594z" fill="#9E9D99"/>
  <path d="M74.43 264.445h-0.117l-0.352-1.469h-1.805v8.734h2.383v-4.445c0-0.703 0.212-1.25 0.637-1.641 0.424-0.391 1.017-0.586 1.777-0.586 0.276 0 0.51 0.026 0.703 0.078l0.18-2.234c-0.214-0.047-0.482-0.07-0.805-0.07 -0.542 0-1.043 0.149-1.504 0.449S74.7 263.956 74.43 264.445z" fill="#9E9D99"/>
  <path d="M87.484 271.711v-5.695c0-1.036-0.263-1.829-0.789-2.379 -0.526-0.55-1.297-0.824-2.313-0.824 -0.594 0-1.124 0.108-1.59 0.324 -0.466 0.216-0.832 0.535-1.098 0.957h-0.133l-0.32-1.117h-1.82v8.734h2.383v-4.109c0-1.031 0.148-1.77 0.445-2.215s0.778-0.668 1.445-0.668c0.489 0 0.846 0.157 1.07 0.473 0.224 0.315 0.336 0.788 0.336 1.418v5.102H87.484z" fill="#9E9D99"/>
  <path d="M93.266 266.32c-1.308 0.047-2.285 0.29-2.934 0.73s-0.973 1.124-0.973 2.051c0 0.886 0.241 1.567 0.723 2.047 0.481 0.479 1.142 0.719 1.98 0.719 0.682 0 1.235-0.098 1.66-0.293 0.424-0.195 0.837-0.546 1.238-1.051h0.063l0.461 1.188h1.664v-5.82c0-1.042-0.313-1.817-0.938-2.328s-1.523-0.766-2.695-0.766c-1.224 0-2.339 0.263-3.344 0.789l0.789 1.609c0.942-0.422 1.763-0.633 2.461-0.633 0.906 0 1.359 0.442 1.359 1.328v0.383L93.266 266.32zM94.781 268.383c0 0.526-0.166 0.948-0.496 1.266 -0.331 0.317-0.772 0.477-1.324 0.477 -0.771 0-1.156-0.336-1.156-1.008 0-0.469 0.169-0.817 0.508-1.047 0.338-0.229 0.854-0.354 1.547-0.375l0.922-0.031V268.383z" fill="#9E9D99"/>
  <rect x="99.602" y="259.555" width="2.383" height="12.156" fill="#9E9D99"/>
  <polygon points="116.336 260.289 107.711 260.289 107.711 262.305 110.813 262.305 110.813 271.711 113.234 271.711 113.234 262.305 116.336 262.305 " fill="#9E9D99"/>
  <path d="M120.289 262.031v-2.477h-2.383v12.156h2.383v-4.109c0-1.016 0.148-1.75 0.445-2.203s0.778-0.68 1.445-0.68c0.938 0 1.406 0.63 1.406 1.891v5.102h2.383v-5.695c0-1.031-0.266-1.823-0.797-2.375s-1.31-0.828-2.336-0.828c-1.156 0-2 0.427-2.531 1.281h-0.125l0.055-0.703C120.271 262.677 120.289 262.224 120.289 262.031z" fill="#9E9D99"/>
  <path d="M131.441 265.625c0.424-0.391 1.017-0.586 1.777-0.586 0.276 0 0.51 0.026 0.703 0.078l0.18-2.234c-0.214-0.047-0.482-0.07-0.805-0.07 -0.542 0-1.043 0.149-1.504 0.449s-0.827 0.694-1.098 1.184h-0.117l-0.352-1.469h-1.805v8.734h2.383v-4.445C130.805 266.563 131.017 266.016 131.441 265.625z" fill="#9E9D99"/>
  <path d="M143.203 266.781c0-1.239-0.344-2.211-1.031-2.914s-1.648-1.055-2.883-1.055c-1.292 0-2.304 0.399-3.035 1.199 -0.732 0.8-1.098 1.931-1.098 3.395 0 1.422 0.396 2.521 1.188 3.297 0.792 0.776 1.891 1.164 3.297 1.164 0.682 0 1.26-0.051 1.734-0.152 0.474-0.102 0.919-0.257 1.336-0.465v-1.844c-0.511 0.239-1 0.414-1.469 0.523s-0.966 0.164-1.492 0.164c-0.677 0-1.203-0.19-1.578-0.57s-0.576-0.909-0.602-1.586h5.633V266.781zM137.625 266.352c0.042-0.589 0.206-1.043 0.492-1.363 0.286-0.32 0.682-0.48 1.188-0.48 0.505 0 0.906 0.16 1.203 0.48s0.45 0.774 0.461 1.363H137.625z" fill="#9E9D99"/>
  <path d="M152.656 266.781c0-1.239-0.344-2.211-1.031-2.914s-1.648-1.055-2.883-1.055c-1.292 0-2.304 0.399-3.035 1.199 -0.732 0.8-1.098 1.931-1.098 3.395 0 1.422 0.396 2.521 1.188 3.297 0.792 0.776 1.891 1.164 3.297 1.164 0.682 0 1.26-0.051 1.734-0.152 0.474-0.102 0.919-0.257 1.336-0.465v-1.844c-0.511 0.239-1 0.414-1.469 0.523s-0.966 0.164-1.492 0.164c-0.677 0-1.203-0.19-1.578-0.57s-0.576-0.909-0.602-1.586h5.633V266.781zM147.078 266.352c0.042-0.589 0.206-1.043 0.492-1.363 0.286-0.32 0.682-0.48 1.188-0.48 0.505 0 0.906 0.16 1.203 0.48s0.45 0.774 0.461 1.363H147.078z" fill="#9E9D99"/>
  <rect x="44" y="228" width="68" height="4" fill="#9E9D99"/>
  <rect x="116" y="228" width="39" height="4" fill="#9E9D99"/>
  <path d="M48.133 214.023c0.609-0.698 0.914-1.714 0.914-3.047v-10.688h-2.422v10.703c0 0.703-0.115 1.22-0.344 1.551 -0.229 0.331-0.609 0.496-1.141 0.496 -0.344 0-0.724-0.052-1.141-0.156v2.016c0.406 0.114 0.883 0.172 1.43 0.172C46.622 215.07 47.523 214.722 48.133 214.023z" fill="#9E9D99"/>
  <path d="M53.195 211.316c0.641 0.367 1.38 0.551 2.219 0.551 1.338 0 2.383-0.401 3.133-1.203s1.125-1.914 1.125-3.336c0-0.917-0.172-1.716-0.516-2.398s-0.836-1.206-1.477-1.57 -1.38-0.547-2.219-0.547c-1.349 0-2.396 0.396-3.141 1.188 -0.745 0.792-1.117 1.901-1.117 3.328 0 0.917 0.172 1.719 0.516 2.406S52.555 210.949 53.195 211.316zM54.055 205.379c0.281-0.43 0.739-0.645 1.375-0.645 0.641 0 1.102 0.216 1.383 0.648s0.422 1.081 0.422 1.945c0 0.87-0.14 1.524-0.418 1.965 -0.279 0.44-0.736 0.66-1.371 0.66 -0.641 0-1.103-0.222-1.387-0.664 -0.284-0.442-0.426-1.097-0.426-1.961C53.633 206.458 53.773 205.809 54.055 205.379z" fill="#9E9D99"/>
  <path d="M64.695 211.867c0.599 0 1.133-0.11 1.602-0.332s0.831-0.535 1.086-0.941h0.125l0.32 1.117h1.828v-8.734h-2.383v4.109c0 1.031-0.148 1.77-0.445 2.215s-0.779 0.668-1.445 0.668c-0.49 0-0.847-0.157-1.07-0.473 -0.224-0.315-0.336-0.788-0.336-1.418v-5.102h-2.383v5.695c0 1.031 0.26 1.821 0.781 2.371C62.896 211.593 63.669 211.867 64.695 211.867z" fill="#9E9D99"/>
  <path d="M74.539 207.266c0-0.703 0.212-1.25 0.637-1.641 0.424-0.391 1.017-0.586 1.777-0.586 0.276 0 0.51 0.026 0.703 0.078l0.18-2.234c-0.214-0.047-0.482-0.07-0.805-0.07 -0.542 0-1.043 0.149-1.504 0.449s-0.827 0.694-1.098 1.184h-0.117l-0.352-1.469h-1.805v8.734h2.383V207.266z" fill="#9E9D99"/>
  <path d="M81.805 207.602c0-1.031 0.148-1.77 0.445-2.215s0.778-0.668 1.445-0.668c0.489 0 0.846 0.157 1.07 0.473 0.224 0.315 0.336 0.788 0.336 1.418v5.102h2.383v-5.695c0-1.036-0.263-1.829-0.789-2.379 -0.526-0.55-1.297-0.824-2.313-0.824 -0.594 0-1.124 0.108-1.59 0.324 -0.466 0.216-0.832 0.535-1.098 0.957h-0.133l-0.32-1.117h-1.82v8.734h2.383V207.602z" fill="#9E9D99"/>
  <path d="M92.063 211.867c0.682 0 1.235-0.098 1.66-0.293 0.424-0.195 0.837-0.546 1.238-1.051h0.063l0.461 1.188h1.664v-5.82c0-1.042-0.313-1.817-0.938-2.328s-1.523-0.766-2.695-0.766c-1.224 0-2.339 0.263-3.344 0.789l0.789 1.609c0.942-0.422 1.763-0.633 2.461-0.633 0.906 0 1.359 0.442 1.359 1.328v0.383l-1.516 0.047c-1.308 0.047-2.285 0.29-2.934 0.73s-0.973 1.124-0.973 2.051c0 0.886 0.241 1.567 0.723 2.047C90.563 211.628 91.224 211.867 92.063 211.867zM92.313 208.07c0.338-0.229 0.854-0.354 1.547-0.375l0.922-0.031v0.719c0 0.526-0.166 0.948-0.496 1.266 -0.331 0.317-0.772 0.477-1.324 0.477 -0.771 0-1.156-0.336-1.156-1.008C91.805 208.648 91.974 208.3 92.313 208.07z" fill="#9E9D99"/>
  <rect x="99.602" y="199.555" width="2.383" height="12.156" fill="#9E9D99"/>
  <path d="M113.758 211.867c1.75 0 3.094-0.508 4.031-1.523s1.406-2.469 1.406-4.359c0-1.896-0.465-3.349-1.395-4.359s-2.272-1.516-4.027-1.516c-1.755 0-3.103 0.501-4.043 1.504 -0.94 1.003-1.41 2.454-1.41 4.355s0.469 3.359 1.406 4.375S112.008 211.867 113.758 211.867zM111.594 203.098c0.489-0.648 1.216-0.973 2.18-0.973 1.922 0 2.883 1.286 2.883 3.859 0 2.567-0.966 3.852-2.898 3.852 -0.964 0-1.688-0.323-2.172-0.969s-0.727-1.606-0.727-2.883S111.104 203.746 111.594 203.098z" fill="#9E9D99"/>
  <path d="M123.758 207.602c0-1.031 0.148-1.77 0.445-2.215s0.778-0.668 1.445-0.668c0.489 0 0.846 0.157 1.07 0.473 0.224 0.315 0.336 0.788 0.336 1.418v5.102h2.383v-5.695c0-1.036-0.263-1.829-0.789-2.379 -0.526-0.55-1.297-0.824-2.313-0.824 -0.594 0-1.124 0.108-1.59 0.324 -0.466 0.216-0.832 0.535-1.098 0.957h-0.133l-0.32-1.117h-1.82v8.734h2.383V207.602z" fill="#9E9D99"/>
  <path d="M139.406 206.781c0-1.239-0.344-2.211-1.031-2.914s-1.648-1.055-2.883-1.055c-1.292 0-2.304 0.399-3.035 1.199 -0.732 0.8-1.098 1.931-1.098 3.395 0 1.422 0.396 2.521 1.188 3.297 0.792 0.776 1.891 1.164 3.297 1.164 0.682 0 1.26-0.051 1.734-0.152 0.474-0.102 0.919-0.257 1.336-0.465v-1.844c-0.511 0.239-1 0.414-1.469 0.523s-0.966 0.164-1.492 0.164c-0.677 0-1.203-0.19-1.578-0.57s-0.576-0.909-0.602-1.586h5.633V206.781zM133.828 206.352c0.042-0.589 0.206-1.043 0.492-1.363 0.286-0.32 0.682-0.48 1.188-0.48 0.505 0 0.906 0.16 1.203 0.48s0.45 0.774 0.461 1.363H133.828z" fill="#9E9D99"/>
  <rect x="228" y="288" width="68" height="4" fill="#9E9D99"/>
  <rect x="300" y="288" width="39" height="4" fill="#9E9D99"/>
  <path d="M230.281 272.543c-0.229 0.331-0.609 0.496-1.141 0.496 -0.344 0-0.724-0.052-1.141-0.156v2.016c0.406 0.114 0.883 0.172 1.43 0.172 1.192 0 2.094-0.349 2.703-1.047s0.914-1.714 0.914-3.047v-10.688h-2.422v10.703C230.625 271.695 230.51 272.212 230.281 272.543z" fill="#9E9D99"/>
  <path d="M241.68 263.359c-0.641-0.364-1.38-0.547-2.219-0.547 -1.349 0-2.396 0.396-3.141 1.188 -0.745 0.792-1.117 1.901-1.117 3.328 0 0.917 0.172 1.719 0.516 2.406s0.836 1.215 1.477 1.582 1.38 0.551 2.219 0.551c1.338 0 2.383-0.401 3.133-1.203s1.125-1.914 1.125-3.336c0-0.917-0.172-1.716-0.516-2.398S242.32 263.724 241.68 263.359zM240.816 269.293c-0.279 0.44-0.736 0.66-1.371 0.66 -0.641 0-1.103-0.222-1.387-0.664 -0.284-0.442-0.426-1.097-0.426-1.961 0-0.87 0.141-1.52 0.422-1.949s0.739-0.645 1.375-0.645c0.641 0 1.102 0.216 1.383 0.648s0.422 1.081 0.422 1.945C241.234 268.198 241.095 268.853 240.816 269.293z" fill="#9E9D99"/>
  <path d="M245.594 262.977v5.695c0 1.031 0.26 1.821 0.781 2.371 0.521 0.55 1.294 0.824 2.32 0.824 0.599 0 1.133-0.11 1.602-0.332s0.831-0.535 1.086-0.941h0.125l0.32 1.117h1.828v-8.734h-2.383v4.109c0 1.031-0.148 1.77-0.445 2.215s-0.779 0.668-1.445 0.668c-0.49 0-0.847-0.157-1.07-0.473 -0.224-0.315-0.336-0.788-0.336-1.418v-5.102H245.594z" fill="#9E9D99"/>
  <path d="M258.43 264.445h-0.117l-0.352-1.469h-1.805v8.734h2.383v-4.445c0-0.703 0.212-1.25 0.637-1.641 0.424-0.391 1.017-0.586 1.777-0.586 0.276 0 0.51 0.026 0.703 0.078l0.18-2.234c-0.214-0.047-0.482-0.07-0.805-0.07 -0.542 0-1.043 0.149-1.504 0.449S258.7 263.956 258.43 264.445z" fill="#9E9D99"/>
  <path d="M271.484 271.711v-5.695c0-1.036-0.263-1.829-0.789-2.379 -0.526-0.55-1.297-0.824-2.313-0.824 -0.594 0-1.124 0.108-1.59 0.324 -0.466 0.216-0.832 0.535-1.098 0.957h-0.133l-0.32-1.117h-1.82v8.734h2.383v-4.109c0-1.031 0.148-1.77 0.445-2.215s0.778-0.668 1.445-0.668c0.489 0 0.846 0.157 1.07 0.473 0.224 0.315 0.336 0.788 0.336 1.418v5.102H271.484z" fill="#9E9D99"/>
  <path d="M277.266 266.32c-1.308 0.047-2.285 0.29-2.934 0.73s-0.973 1.124-0.973 2.051c0 0.886 0.241 1.567 0.723 2.047 0.481 0.479 1.142 0.719 1.98 0.719 0.682 0 1.235-0.098 1.66-0.293 0.424-0.195 0.837-0.546 1.238-1.051h0.063l0.461 1.188h1.664v-5.82c0-1.042-0.313-1.817-0.938-2.328s-1.523-0.766-2.695-0.766c-1.224 0-2.339 0.263-3.344 0.789l0.789 1.609c0.942-0.422 1.763-0.633 2.461-0.633 0.906 0 1.359 0.442 1.359 1.328v0.383L277.266 266.32zM278.781 268.383c0 0.526-0.166 0.948-0.496 1.266 -0.331 0.317-0.772 0.477-1.324 0.477 -0.771 0-1.156-0.336-1.156-1.008 0-0.469 0.169-0.817 0.508-1.047 0.338-0.229 0.854-0.354 1.547-0.375l0.922-0.031V268.383z" fill="#9E9D99"/>
  <rect x="283.602" y="259.555" width="2.383" height="12.156" fill="#9E9D99"/>
  <polygon points="292.828 271.711 295.211 271.711 295.211 267.195 299.086 267.195 299.086 265.219 295.211 265.219 295.211 262.273 299.375 262.273 299.375 260.289 292.828 260.289 " fill="#9E9D99"/>
  <path d="M302.883 271.316c0.641 0.367 1.38 0.551 2.219 0.551 1.338 0 2.383-0.401 3.133-1.203s1.125-1.914 1.125-3.336c0-0.917-0.172-1.716-0.516-2.398s-0.836-1.206-1.477-1.57 -1.381-0.547-2.219-0.547c-1.35 0-2.396 0.396-3.141 1.188 -0.745 0.792-1.117 1.901-1.117 3.328 0 0.917 0.172 1.719 0.516 2.406S302.242 270.949 302.883 271.316zM303.742 265.379c0.281-0.43 0.739-0.645 1.375-0.645 0.641 0 1.102 0.216 1.383 0.648s0.422 1.081 0.422 1.945c0 0.87-0.14 1.524-0.418 1.965 -0.279 0.44-0.736 0.66-1.371 0.66 -0.641 0-1.104-0.222-1.387-0.664 -0.284-0.442-0.426-1.097-0.426-1.961C303.32 266.458 303.461 265.809 303.742 265.379z" fill="#9E9D99"/>
  <path d="M311.281 262.977v5.695c0 1.031 0.26 1.821 0.781 2.371 0.521 0.55 1.294 0.824 2.32 0.824 0.599 0 1.133-0.11 1.602-0.332s0.83-0.535 1.086-0.941h0.125l0.32 1.117h1.828v-8.734h-2.383v4.109c0 1.031-0.148 1.77-0.445 2.215s-0.779 0.668-1.445 0.668c-0.49 0-0.847-0.157-1.07-0.473 -0.225-0.315-0.336-0.788-0.336-1.418v-5.102H311.281z" fill="#9E9D99"/>
  <path d="M324.863 265.625c0.424-0.391 1.017-0.586 1.777-0.586 0.275 0 0.51 0.026 0.703 0.078l0.18-2.234c-0.214-0.047-0.482-0.07-0.805-0.07 -0.542 0-1.043 0.149-1.504 0.449s-0.827 0.694-1.098 1.184H324l-0.352-1.469h-1.805v8.734h2.383v-4.445C324.227 266.563 324.438 266.016 324.863 265.625z" fill="#9E9D99"/>
  <rect x="228" y="228" width="68" height="4" fill="#9E9D99"/>
  <rect x="300" y="228" width="39" height="4" fill="#9E9D99"/>
  <path d="M233.047 210.977v-10.688h-2.422v10.703c0 0.703-0.115 1.22-0.344 1.551 -0.229 0.331-0.609 0.496-1.141 0.496 -0.344 0-0.724-0.052-1.141-0.156v2.016c0.406 0.114 0.883 0.172 1.43 0.172 1.192 0 2.094-0.349 2.703-1.047S233.047 212.31 233.047 210.977z" fill="#9E9D99"/>
  <path d="M237.195 211.316c0.641 0.367 1.38 0.551 2.219 0.551 1.338 0 2.383-0.401 3.133-1.203s1.125-1.914 1.125-3.336c0-0.917-0.172-1.716-0.516-2.398s-0.836-1.206-1.477-1.57 -1.38-0.547-2.219-0.547c-1.349 0-2.396 0.396-3.141 1.188 -0.745 0.792-1.117 1.901-1.117 3.328 0 0.917 0.172 1.719 0.516 2.406S236.555 210.949 237.195 211.316zM238.055 205.379c0.281-0.43 0.739-0.645 1.375-0.645 0.641 0 1.102 0.216 1.383 0.648s0.422 1.081 0.422 1.945c0 0.87-0.14 1.524-0.418 1.965 -0.279 0.44-0.736 0.66-1.371 0.66 -0.641 0-1.103-0.222-1.387-0.664 -0.284-0.442-0.426-1.097-0.426-1.961C237.633 206.458 237.773 205.809 238.055 205.379z" fill="#9E9D99"/>
  <path d="M245.594 202.977v5.695c0 1.031 0.26 1.821 0.781 2.371 0.521 0.55 1.294 0.824 2.32 0.824 0.599 0 1.133-0.11 1.602-0.332s0.831-0.535 1.086-0.941h0.125l0.32 1.117h1.828v-8.734h-2.383v4.109c0 1.031-0.148 1.77-0.445 2.215s-0.779 0.668-1.445 0.668c-0.49 0-0.847-0.157-1.07-0.473 -0.224-0.315-0.336-0.788-0.336-1.418v-5.102H245.594z" fill="#9E9D99"/>
  <path d="M258.43 204.445h-0.117l-0.352-1.469h-1.805v8.734h2.383v-4.445c0-0.703 0.212-1.25 0.637-1.641 0.424-0.391 1.017-0.586 1.777-0.586 0.276 0 0.51 0.026 0.703 0.078l0.18-2.234c-0.214-0.047-0.482-0.07-0.805-0.07 -0.542 0-1.043 0.149-1.504 0.449S258.7 203.956 258.43 204.445z" fill="#9E9D99"/>
  <path d="M271.484 211.711v-5.695c0-1.036-0.263-1.829-0.789-2.379 -0.526-0.55-1.297-0.824-2.313-0.824 -0.594 0-1.124 0.108-1.59 0.324 -0.466 0.216-0.832 0.535-1.098 0.957h-0.133l-0.32-1.117h-1.82v8.734h2.383v-4.109c0-1.031 0.148-1.77 0.445-2.215s0.778-0.668 1.445-0.668c0.489 0 0.846 0.157 1.07 0.473 0.224 0.315 0.336 0.788 0.336 1.418v5.102H271.484z" fill="#9E9D99"/>
  <path d="M277.266 206.32c-1.308 0.047-2.285 0.29-2.934 0.73s-0.973 1.124-0.973 2.051c0 0.886 0.241 1.567 0.723 2.047 0.481 0.479 1.142 0.719 1.98 0.719 0.682 0 1.235-0.098 1.66-0.293 0.424-0.195 0.837-0.546 1.238-1.051h0.063l0.461 1.188h1.664v-5.82c0-1.042-0.313-1.817-0.938-2.328s-1.523-0.766-2.695-0.766c-1.224 0-2.339 0.263-3.344 0.789l0.789 1.609c0.942-0.422 1.763-0.633 2.461-0.633 0.906 0 1.359 0.442 1.359 1.328v0.383L277.266 206.32zM278.781 208.383c0 0.526-0.166 0.948-0.496 1.266 -0.331 0.317-0.772 0.477-1.324 0.477 -0.771 0-1.156-0.336-1.156-1.008 0-0.469 0.169-0.817 0.508-1.047 0.338-0.229 0.854-0.354 1.547-0.375l0.922-0.031V208.383z" fill="#9E9D99"/>
  <rect x="283.602" y="199.555" width="2.383" height="12.156" fill="#9E9D99"/>
  <polygon points="297.234 202.305 300.336 202.305 300.336 200.289 291.711 200.289 291.711 202.305 294.813 202.305 294.813 211.711 297.234 211.711 " fill="#9E9D99"/>
  <path d="M307.453 204.797h0.055l0.906 3.859 0.672 3.055h2.594l2.516-8.734h-2.336l-1.047 3.867c-0.053 0.229-0.139 0.671-0.258 1.324 -0.12 0.653-0.203 1.168-0.25 1.543h-0.047c-0.006-0.146-0.025-0.34-0.059-0.582 -0.034-0.242-0.072-0.489-0.113-0.742 -0.042-0.253-0.085-0.491-0.129-0.715 -0.045-0.224-0.077-0.394-0.098-0.508l-1.023-4.188h-2.625l-1.078 4.188 -0.125 0.664c-0.162 0.859-0.253 1.487-0.273 1.883h-0.047c-0.167-1.219-0.331-2.175-0.492-2.867l-1.008-3.867h-2.375l2.484 8.734h2.563L307.453 204.797z" fill="#9E9D99"/>
  <path d="M317.063 211.316c0.641 0.367 1.38 0.551 2.219 0.551 1.338 0 2.383-0.401 3.133-1.203s1.125-1.914 1.125-3.336c0-0.917-0.172-1.716-0.516-2.398s-0.836-1.206-1.477-1.57 -1.381-0.547-2.219-0.547c-1.35 0-2.396 0.396-3.141 1.188 -0.745 0.792-1.117 1.901-1.117 3.328 0 0.917 0.172 1.719 0.516 2.406S316.422 210.949 317.063 211.316zM317.922 205.379c0.281-0.43 0.739-0.645 1.375-0.645 0.641 0 1.102 0.216 1.383 0.648s0.422 1.081 0.422 1.945c0 0.87-0.14 1.524-0.418 1.965 -0.279 0.44-0.736 0.66-1.371 0.66 -0.641 0-1.104-0.222-1.387-0.664 -0.284-0.442-0.426-1.097-0.426-1.961C317.5 206.458 317.641 205.809 317.922 205.379z" fill="#9E9D99"/>
  <path d="M397.664 161.711l1.539-5.984c0.067-0.266 0.164-0.71 0.289-1.332s0.203-1.074 0.234-1.355c0.021 0.229 0.1 0.679 0.238 1.348 0.138 0.669 0.235 1.11 0.293 1.324l1.547 6h2.758l2.906-11.422h-2.383l-1.453 6.234c-0.094 0.375-0.198 0.866-0.313 1.473 -0.115 0.606-0.198 1.113-0.25 1.52 -0.058-0.422-0.141-0.927-0.25-1.516s-0.201-1.026-0.273-1.313l-1.664-6.398h-2.289l-1.664 6.398c-0.1 0.344-0.205 0.827-0.316 1.449 -0.112 0.622-0.184 1.082-0.215 1.379 -0.115-0.844-0.3-1.841-0.555-2.992l-1.461-6.234H392l2.914 11.422H397.664z" fill="#9E9D99"/>
  <rect x="408.719" y="152.977" width="2.383" height="8.734" fill="#9E9D99"/>
  <path d="M409.914 151.891c0.432 0 0.756-0.103 0.973-0.309 0.216-0.206 0.324-0.493 0.324-0.863 0-0.776-0.433-1.164-1.297-1.164 -0.865 0-1.297 0.388-1.297 1.164C408.617 151.5 409.049 151.891 409.914 151.891z" fill="#9E9D99"/>
  <path d="M416.367 161.867c1.109 0 1.935-0.43 2.477-1.289h0.102l0.461 1.133h1.828v-12.156h-2.391v2.797c0 0.511 0.06 1.091 0.18 1.742h-0.078c-0.578-0.854-1.417-1.281-2.516-1.281 -1.047 0-1.869 0.399-2.465 1.199 -0.597 0.8-0.895 1.915-0.895 3.348 0 1.411 0.293 2.516 0.879 3.313S415.341 161.867 416.367 161.867zM415.926 155.426c0.294-0.45 0.707-0.676 1.238-0.676 0.65 0 1.121 0.203 1.41 0.609s0.434 1.078 0.434 2.016v0.258c-0.026 0.849-0.182 1.45-0.465 1.805 -0.284 0.354-0.73 0.531-1.34 0.531 -0.553 0-0.977-0.215-1.273-0.645s-0.445-1.074-0.445-1.934S415.631 155.876 415.926 155.426z" fill="#9E9D99"/>
  <path d="M423.488 164.918c0.643 0.425 1.574 0.637 2.793 0.637 1.594 0 2.816-0.281 3.668-0.844s1.277-1.354 1.277-2.375c0-0.797-0.252-1.401-0.754-1.813 -0.503-0.411-1.233-0.617-2.191-0.617h-1.484c-0.875 0-1.313-0.172-1.313-0.516 0-0.229 0.122-0.438 0.367-0.625l0.352 0.039 0.43 0.023c1.161 0 2.068-0.262 2.723-0.785 0.653-0.523 0.98-1.254 0.98-2.191 0-0.484-0.125-0.922-0.375-1.313l1.367-0.352v-1.211h-3.047c-0.094-0.021-0.309-0.054-0.645-0.098s-0.627-0.066-0.871-0.066c-1.151 0-2.037 0.261-2.656 0.781 -0.62 0.521-0.93 1.258-0.93 2.211 0 0.594 0.134 1.109 0.402 1.547 0.268 0.438 0.631 0.755 1.09 0.953 -0.365 0.214-0.644 0.431-0.836 0.652 -0.193 0.222-0.289 0.499-0.289 0.832 0 0.266 0.091 0.517 0.273 0.754 0.182 0.237 0.396 0.407 0.641 0.512 -0.636 0.151-1.117 0.403-1.445 0.758s-0.492 0.794-0.492 1.32C422.523 163.898 422.845 164.493 423.488 164.918zM426.766 154.258c0.864 0 1.297 0.526 1.297 1.578 0 0.474-0.104 0.849-0.313 1.125 -0.209 0.276-0.537 0.414-0.984 0.414 -0.443 0-0.772-0.138-0.988-0.414 -0.217-0.276-0.324-0.651-0.324-1.125C425.453 154.784 425.891 154.258 426.766 154.258zM425.027 162.129c0.294-0.206 0.66-0.309 1.098-0.309h1.234c0.599 0 1.041 0.063 1.328 0.188 0.286 0.125 0.43 0.352 0.43 0.68 0 0.406-0.242 0.727-0.727 0.961S427.236 164 426.383 164c-0.568 0-1.01-0.094-1.324-0.281 -0.315-0.188-0.473-0.445-0.473-0.773C424.586 162.606 424.732 162.335 425.027 162.129z" fill="#9E9D99"/>
  <path d="M436.719 161.867c0.682 0 1.26-0.051 1.734-0.152 0.474-0.102 0.919-0.257 1.336-0.465v-1.844c-0.511 0.239-1 0.414-1.469 0.523s-0.967 0.164-1.492 0.164c-0.678 0-1.203-0.19-1.578-0.57s-0.576-0.909-0.602-1.586h5.633v-1.156c0-1.239-0.344-2.211-1.031-2.914s-1.648-1.055-2.883-1.055c-1.292 0-2.304 0.399-3.035 1.199 -0.732 0.8-1.098 1.931-1.098 3.395 0 1.422 0.396 2.521 1.188 3.297C434.213 161.479 435.313 161.867 436.719 161.867zM435.195 154.988c0.286-0.32 0.682-0.48 1.188-0.48 0.505 0 0.906 0.16 1.203 0.48s0.45 0.774 0.461 1.363h-3.344C434.744 155.763 434.908 155.309 435.195 154.988z" fill="#9E9D99"/>
  <path d="M442.477 158.977c0 0.964 0.217 1.687 0.652 2.168 0.435 0.481 1.129 0.723 2.082 0.723 0.864 0 1.594-0.133 2.188-0.398v-1.773c-0.584 0.183-1.084 0.273-1.5 0.273 -0.313 0-0.564-0.081-0.754-0.242 -0.19-0.161-0.285-0.411-0.285-0.75v-4.211h2.445v-1.789h-2.445v-1.859h-1.523l-0.688 1.844 -1.313 0.797v1.008h1.141V158.977z" fill="#9E9D99"/>
  <polygon points="455.93 156.781 460.453 156.781 460.453 161.711 462.867 161.711 462.867 150.289 460.453 150.289 460.453 154.766 455.93 154.766 455.93 150.289 453.508 150.289 453.508 161.711 455.93 161.711 " fill="#9E9D99"/>
  <path d="M469.516 161.867c0.682 0 1.26-0.051 1.734-0.152 0.474-0.102 0.919-0.257 1.336-0.465v-1.844c-0.511 0.239-1 0.414-1.469 0.523s-0.967 0.164-1.492 0.164c-0.678 0-1.203-0.19-1.578-0.57s-0.576-0.909-0.602-1.586h5.633v-1.156c0-1.239-0.344-2.211-1.031-2.914s-1.648-1.055-2.883-1.055c-1.292 0-2.304 0.399-3.035 1.199 -0.732 0.8-1.098 1.931-1.098 3.395 0 1.422 0.396 2.521 1.188 3.297C467.01 161.479 468.109 161.867 469.516 161.867zM467.992 154.988c0.286-0.32 0.682-0.48 1.188-0.48 0.505 0 0.906 0.16 1.203 0.48s0.45 0.774 0.461 1.363H467.5C467.541 155.763 467.705 155.309 467.992 154.988z" fill="#9E9D99"/>
  <path d="M477.141 161.867c0.682 0 1.235-0.098 1.66-0.293 0.424-0.195 0.837-0.546 1.238-1.051h0.063l0.461 1.188h1.664v-5.82c0-1.042-0.313-1.817-0.938-2.328s-1.523-0.766-2.695-0.766c-1.225 0-2.339 0.263-3.344 0.789l0.789 1.609c0.942-0.422 1.763-0.633 2.461-0.633 0.906 0 1.359 0.442 1.359 1.328v0.383l-1.516 0.047c-1.308 0.047-2.285 0.29-2.934 0.73s-0.973 1.124-0.973 2.051c0 0.886 0.24 1.567 0.723 2.047C475.642 161.628 476.302 161.867 477.141 161.867zM477.391 158.07c0.338-0.229 0.854-0.354 1.547-0.375l0.922-0.031v0.719c0 0.526-0.166 0.948-0.496 1.266 -0.331 0.317-0.772 0.477-1.324 0.477 -0.771 0-1.156-0.336-1.156-1.008C476.883 158.648 477.052 158.3 477.391 158.07z" fill="#9E9D99"/>
  <path d="M487.445 161.867c1.109 0 1.935-0.43 2.477-1.289h0.102l0.461 1.133h1.828v-12.156h-2.391v2.797c0 0.511 0.06 1.091 0.18 1.742h-0.078c-0.578-0.854-1.417-1.281-2.516-1.281 -1.047 0-1.869 0.399-2.465 1.199 -0.597 0.8-0.895 1.915-0.895 3.348 0 1.411 0.293 2.516 0.879 3.313S486.419 161.867 487.445 161.867zM487.004 155.426c0.294-0.45 0.707-0.676 1.238-0.676 0.65 0 1.121 0.203 1.41 0.609s0.434 1.078 0.434 2.016v0.258c-0.026 0.849-0.182 1.45-0.465 1.805 -0.284 0.354-0.73 0.531-1.34 0.531 -0.553 0-0.977-0.215-1.273-0.645s-0.445-1.074-0.445-1.934S486.709 155.876 487.004 155.426z" fill="#9E9D99"/>
  <path d="M498.758 161.867c0.682 0 1.26-0.051 1.734-0.152 0.474-0.102 0.919-0.257 1.336-0.465v-1.844c-0.511 0.239-1 0.414-1.469 0.523s-0.967 0.164-1.492 0.164c-0.678 0-1.203-0.19-1.578-0.57s-0.576-0.909-0.602-1.586h5.633v-1.156c0-1.239-0.344-2.211-1.031-2.914s-1.648-1.055-2.883-1.055c-1.292 0-2.304 0.399-3.035 1.199 -0.732 0.8-1.098 1.931-1.098 3.395 0 1.422 0.396 2.521 1.188 3.297C496.252 161.479 497.352 161.867 498.758 161.867zM497.234 154.988c0.286-0.32 0.682-0.48 1.188-0.48 0.505 0 0.906 0.16 1.203 0.48s0.45 0.774 0.461 1.363h-3.344C496.783 155.763 496.947 155.309 497.234 154.988z" fill="#9E9D99"/>
  <path d="M506.641 157.266c0-0.703 0.212-1.25 0.637-1.641 0.424-0.391 1.017-0.586 1.777-0.586 0.275 0 0.51 0.026 0.703 0.078l0.18-2.234c-0.214-0.047-0.482-0.07-0.805-0.07 -0.542 0-1.043 0.149-1.504 0.449s-0.827 0.694-1.098 1.184h-0.117l-0.352-1.469h-1.805v8.734h2.383V157.266z" fill="#9E9D99"/>
  <path d="M403.633 396.523c-0.094 0.375-0.198 0.866-0.313 1.473 -0.115 0.606-0.198 1.113-0.25 1.52 -0.058-0.422-0.141-0.927-0.25-1.516s-0.201-1.026-0.273-1.313l-1.664-6.398h-2.289l-1.664 6.398c-0.1 0.344-0.205 0.827-0.316 1.449 -0.112 0.622-0.184 1.082-0.215 1.379 -0.115-0.844-0.3-1.841-0.555-2.992l-1.461-6.234H392l2.914 11.422h2.75l1.539-5.984c0.067-0.266 0.164-0.71 0.289-1.332s0.203-1.074 0.234-1.355c0.021 0.229 0.1 0.679 0.238 1.348 0.138 0.669 0.235 1.11 0.293 1.324l1.547 6h2.758l2.906-11.422h-2.383L403.633 396.523z" fill="#9E9D99"/>
  <rect x="408.719" y="392.977" width="2.383" height="8.734" fill="#9E9D99"/>
  <path d="M409.914 389.555c-0.865 0-1.297 0.388-1.297 1.164 0 0.781 0.432 1.172 1.297 1.172 0.432 0 0.756-0.103 0.973-0.309 0.216-0.206 0.324-0.493 0.324-0.863C411.211 389.942 410.778 389.555 409.914 389.555z" fill="#9E9D99"/>
  <path d="M418.844 392.352c0 0.511 0.06 1.091 0.18 1.742h-0.078c-0.578-0.854-1.417-1.281-2.516-1.281 -1.047 0-1.869 0.399-2.465 1.199 -0.597 0.8-0.895 1.915-0.895 3.348 0 1.411 0.293 2.516 0.879 3.313s1.392 1.195 2.418 1.195c1.109 0 1.935-0.43 2.477-1.289h0.102l0.461 1.133h1.828v-12.156h-2.391V392.352zM419.008 397.633c-0.026 0.849-0.182 1.45-0.465 1.805 -0.284 0.354-0.73 0.531-1.34 0.531 -0.553 0-0.977-0.215-1.273-0.645s-0.445-1.074-0.445-1.934 0.146-1.515 0.441-1.965c0.294-0.45 0.707-0.676 1.238-0.676 0.65 0 1.121 0.203 1.41 0.609s0.434 1.078 0.434 2.016V397.633z" fill="#9E9D99"/>
  <path d="M427.637 392.879c-0.336-0.044-0.627-0.066-0.871-0.066 -1.151 0-2.037 0.261-2.656 0.781 -0.62 0.521-0.93 1.258-0.93 2.211 0 0.594 0.134 1.109 0.402 1.547 0.268 0.438 0.631 0.755 1.09 0.953 -0.365 0.214-0.644 0.431-0.836 0.652 -0.193 0.222-0.289 0.499-0.289 0.832 0 0.266 0.091 0.517 0.273 0.754 0.182 0.237 0.396 0.407 0.641 0.512 -0.636 0.151-1.117 0.403-1.445 0.758s-0.492 0.794-0.492 1.32c0 0.766 0.321 1.36 0.965 1.785 0.643 0.425 1.574 0.637 2.793 0.637 1.594 0 2.816-0.281 3.668-0.844s1.277-1.354 1.277-2.375c0-0.797-0.252-1.401-0.754-1.813 -0.503-0.411-1.233-0.617-2.191-0.617h-1.484c-0.875 0-1.313-0.172-1.313-0.516 0-0.229 0.122-0.438 0.367-0.625l0.352 0.039 0.43 0.023c1.161 0 2.068-0.262 2.723-0.785 0.653-0.523 0.98-1.254 0.98-2.191 0-0.484-0.125-0.922-0.375-1.313l1.367-0.352v-1.211h-3.047C428.188 392.956 427.973 392.923 427.637 392.879zM426.125 401.82h1.234c0.599 0 1.041 0.063 1.328 0.188 0.286 0.125 0.43 0.352 0.43 0.68 0 0.406-0.242 0.727-0.727 0.961S427.236 404 426.383 404c-0.568 0-1.01-0.094-1.324-0.281 -0.315-0.188-0.473-0.445-0.473-0.773 0-0.339 0.146-0.61 0.441-0.816C425.321 401.923 425.688 401.82 426.125 401.82zM427.75 396.961c-0.209 0.276-0.537 0.414-0.984 0.414 -0.443 0-0.772-0.138-0.988-0.414 -0.217-0.276-0.324-0.651-0.324-1.125 0-1.052 0.438-1.578 1.313-1.578 0.864 0 1.297 0.526 1.297 1.578C428.063 396.31 427.958 396.685 427.75 396.961z" fill="#9E9D99"/>
  <path d="M436.367 392.813c-1.292 0-2.304 0.399-3.035 1.199 -0.732 0.8-1.098 1.931-1.098 3.395 0 1.422 0.396 2.521 1.188 3.297 0.791 0.776 1.891 1.164 3.297 1.164 0.682 0 1.26-0.051 1.734-0.152 0.474-0.102 0.919-0.257 1.336-0.465v-1.844c-0.511 0.239-1 0.414-1.469 0.523s-0.967 0.164-1.492 0.164c-0.678 0-1.203-0.19-1.578-0.57s-0.576-0.909-0.602-1.586h5.633v-1.156c0-1.239-0.344-2.211-1.031-2.914S437.602 392.813 436.367 392.813zM434.703 396.352c0.041-0.589 0.205-1.043 0.492-1.363 0.286-0.32 0.682-0.48 1.188-0.48 0.505 0 0.906 0.16 1.203 0.48s0.45 0.774 0.461 1.363H434.703z" fill="#9E9D99"/>
  <path d="M445.145 399.727c-0.19-0.161-0.285-0.411-0.285-0.75v-4.211h2.445v-1.789h-2.445v-1.859h-1.523l-0.688 1.844 -1.313 0.797v1.008h1.141v4.211c0 0.964 0.217 1.687 0.652 2.168 0.435 0.481 1.129 0.723 2.082 0.723 0.864 0 1.594-0.133 2.188-0.398v-1.773c-0.584 0.183-1.084 0.273-1.5 0.273C445.586 399.969 445.334 399.888 445.145 399.727z" fill="#9E9D99"/>
  <polygon points="460.453 394.766 455.93 394.766 455.93 390.289 453.508 390.289 453.508 401.711 455.93 401.711 455.93 396.781 460.453 396.781 460.453 401.711 462.867 401.711 462.867 390.289 460.453 390.289 " fill="#9E9D99"/>
  <path d="M469.164 392.813c-1.292 0-2.304 0.399-3.035 1.199 -0.732 0.8-1.098 1.931-1.098 3.395 0 1.422 0.396 2.521 1.188 3.297 0.791 0.776 1.891 1.164 3.297 1.164 0.682 0 1.26-0.051 1.734-0.152 0.474-0.102 0.919-0.257 1.336-0.465v-1.844c-0.511 0.239-1 0.414-1.469 0.523s-0.967 0.164-1.492 0.164c-0.678 0-1.203-0.19-1.578-0.57s-0.576-0.909-0.602-1.586h5.633v-1.156c0-1.239-0.344-2.211-1.031-2.914S470.398 392.813 469.164 392.813zM467.5 396.352c0.041-0.589 0.205-1.043 0.492-1.363 0.286-0.32 0.682-0.48 1.188-0.48 0.505 0 0.906 0.16 1.203 0.48s0.45 0.774 0.461 1.363H467.5z" fill="#9E9D99"/>
  <path d="M478.594 392.797c-1.225 0-2.339 0.263-3.344 0.789l0.789 1.609c0.942-0.422 1.763-0.633 2.461-0.633 0.906 0 1.359 0.442 1.359 1.328v0.383l-1.516 0.047c-1.308 0.047-2.285 0.29-2.934 0.73s-0.973 1.124-0.973 2.051c0 0.886 0.24 1.567 0.723 2.047 0.481 0.479 1.142 0.719 1.98 0.719 0.682 0 1.235-0.098 1.66-0.293 0.424-0.195 0.837-0.546 1.238-1.051h0.063l0.461 1.188h1.664v-5.82c0-1.042-0.313-1.817-0.938-2.328S479.766 392.797 478.594 392.797zM479.859 398.383c0 0.526-0.166 0.948-0.496 1.266 -0.331 0.317-0.772 0.477-1.324 0.477 -0.771 0-1.156-0.336-1.156-1.008 0-0.469 0.169-0.817 0.508-1.047 0.338-0.229 0.854-0.354 1.547-0.375l0.922-0.031V398.383z" fill="#9E9D99"/>
  <path d="M489.922 392.352c0 0.511 0.06 1.091 0.18 1.742h-0.078c-0.578-0.854-1.417-1.281-2.516-1.281 -1.047 0-1.869 0.399-2.465 1.199 -0.597 0.8-0.895 1.915-0.895 3.348 0 1.411 0.293 2.516 0.879 3.313s1.392 1.195 2.418 1.195c1.109 0 1.935-0.43 2.477-1.289h0.102l0.461 1.133h1.828v-12.156h-2.391V392.352zM490.086 397.633c-0.026 0.849-0.182 1.45-0.465 1.805 -0.284 0.354-0.73 0.531-1.34 0.531 -0.553 0-0.977-0.215-1.273-0.645s-0.445-1.074-0.445-1.934 0.146-1.515 0.441-1.965c0.294-0.45 0.707-0.676 1.238-0.676 0.65 0 1.121 0.203 1.41 0.609s0.434 1.078 0.434 2.016V397.633z" fill="#9E9D99"/>
  <path d="M498.406 392.813c-1.292 0-2.304 0.399-3.035 1.199 -0.732 0.8-1.098 1.931-1.098 3.395 0 1.422 0.396 2.521 1.188 3.297 0.791 0.776 1.891 1.164 3.297 1.164 0.682 0 1.26-0.051 1.734-0.152 0.474-0.102 0.919-0.257 1.336-0.465v-1.844c-0.511 0.239-1 0.414-1.469 0.523s-0.967 0.164-1.492 0.164c-0.678 0-1.203-0.19-1.578-0.57s-0.576-0.909-0.602-1.586h5.633v-1.156c0-1.239-0.344-2.211-1.031-2.914S499.641 392.813 498.406 392.813zM496.742 396.352c0.041-0.589 0.205-1.043 0.492-1.363 0.286-0.32 0.682-0.48 1.188-0.48 0.505 0 0.906 0.16 1.203 0.48s0.45 0.774 0.461 1.363H496.742z" fill="#9E9D99"/>
  <path d="M506.641 397.266c0-0.703 0.212-1.25 0.637-1.641 0.424-0.391 1.017-0.586 1.777-0.586 0.275 0 0.51 0.026 0.703 0.078l0.18-2.234c-0.214-0.047-0.482-0.07-0.805-0.07 -0.542 0-1.043 0.149-1.504 0.449s-0.827 0.694-1.098 1.184h-0.117l-0.352-1.469h-1.805v8.734h2.383V397.266z" fill="#9E9D99"/>
  <rect x="8" y="560" width="52" height="4" fill="#9E9D99"/>
  <rect x="64" y="560" width="16" height="4" fill="#9E9D99"/>
  <rect x="84" y="560" width="16" height="4" fill="#9E9D99"/>
  <rect x="506" y="552" width="62" height="16" fill="#9E9D99"/>
</svg>